<?xml version="1.0" encoding="UTF-8" standalone="no"?>
<svg
   xmlns:dc="http://purl.org/dc/elements/1.1/"
   xmlns:cc="http://creativecommons.org/ns#"
   xmlns:rdf="http://www.w3.org/1999/02/22-rdf-syntax-ns#"
   xmlns:svg="http://www.w3.org/2000/svg"
   xmlns="http://www.w3.org/2000/svg"
   id="svg34"
   version="1.1"
   height="1000"
   width="1000">
  <metadata
     id="metadata40">
    <rdf:RDF>
      <cc:Work
         rdf:about="">
        <dc:format>image/svg+xml</dc:format>
        <dc:type
           rdf:resource="http://purl.org/dc/dcmitype/StillImage" />
        <dc:title></dc:title>
      </cc:Work>
    </rdf:RDF>
  </metadata>
  <defs
     id="defs38" />
  <g
     style="display:inline"
     id="layer2">
    <rect
       ry="250"
       y="0"
       x="0"
       height="1000"
       width="1000"
       id="rect833"
       style="opacity:1;fill:#000000;fill-opacity:1;stroke:none;stroke-width:15;stroke-linecap:round;stroke-linejoin:bevel;stroke-miterlimit:4;stroke-dasharray:none" />
  </g>
  <g
     style="display:inline"
     id="layer1">
    <g
       transform="matrix(1.2382707,0,0,1.2382707,-114.53712,-133.21441)"
       id="g823">
      <path
         style="fill:#ffffff;stroke:none;stroke-width:1.24855983"
         d="m 479.22827,302.23617 c 0.57934,2.71186 1.37966,4.9418 2.49712,7.49135 8.99713,-3.40981 16.98916,-10.07712 24.9712,-15.39849 15.04889,-10.03218 29.89801,-20.34779 44.94815,-30.38244 41.7481,-27.83166 83.10665,-56.2364 124.856,-84.06929 18.62476,-12.41668 36.61527,-26.56111 56.18519,-37.4568 -0.57933,-2.71199 -1.38091,-4.9423 -2.49712,-7.49136 -9.71753,3.09643 -17.83069,10.60977 -26.21977,16.23028 -16.68574,11.17886 -33.40646,22.28342 -49.94238,33.67966 -32.60615,22.47407 -66.0301,43.7645 -98.63624,66.23859 -24.89128,17.15646 -49.75635,36.4567 -76.16215,51.1585 M 556.63898,161.1489 c -61.84866,41.69066 -125.86357,79.99398 -187.28398,122.32641 -14.35718,9.89608 -28.75059,19.76095 -43.6996,28.74933 -8.49645,5.10911 -19.46867,9.87611 -24.68601,18.7334 -6.60801,11.2183 -3.05236,28.68816 -4.24287,41.19748 -2.054,21.58385 -2.16451,43.30005 -3.64543,64.92511 -1.11671,16.30745 -3.19643,32.39638 -1.1368,48.69384 h 7.49136 c 1.17614,-7.99453 3.99751,-15.61324 4.78224,-23.72264 3.03973,-31.41127 0.57047,-63.62037 4.67635,-94.89055 1.96198,-14.94651 -4.1602,-32.81841 14.26406,-38.70536 0,99.57764 1.24854,198.8444 1.24854,298.40581 0,37.92127 0.20102,75.84502 -2.38475,113.61896 -1.02506,14.96649 -0.0949,30.24386 -3.73194,44.94815 -7.17423,29.00405 -33.88467,49.29564 -55.06274,68.45855 -10.30924,9.32798 -24.67804,19.45255 -27.46832,33.92336 16.97891,-2.54456 32.29076,-17.10776 44.94816,-27.81167 27.69755,-23.42048 54.51587,-49.32685 77.92262,-77.06736 9.25557,-10.96984 21.58136,-23.43173 25.70784,-37.4568 -4.44237,0.19354 -8.32164,0.93768 -12.48559,2.49713 0.002,-17.92058 2.9129,-35.80246 3.69698,-53.68807 1.03506,-23.64024 -0.0649,-47.50396 0.0499,-71.16792 0.11112,-23.23071 1.24732,-46.59375 1.24732,-69.91935 0,-14.65185 -0.0537,-29.11891 1.14117,-43.6996 0.5706,-6.95948 1.31474,-15.10758 8.84731,-17.47984 0.0387,14.09 1.42335,28.39725 2.38474,42.45103 0.60556,8.83481 -0.26718,17.44863 1.36094,26.21977 h 4.99424 c 0.0825,-10.00472 1.70178,-19.99444 2.38475,-29.96545 0.80031,-11.66029 0.3009,-23.74012 3.85805,-34.95967 h 2.49712 c 4.97425,9.60142 13.6892,17.34748 21.22051,24.9712 8.04573,8.1431 15.75934,16.6895 23.67895,24.97119 31.49866,32.94076 64.3358,65.48323 94.22008,99.8848 8.63004,9.93479 18.3251,18.94439 27.15118,28.71686 4.06656,4.50357 10.0509,9.02086 12.03112,14.98273 1.52699,4.59969 -1.46706,8.97589 -4.16394,12.4856 -6.08799,7.92086 -14.22735,14.28602 -21.8136,20.69613 -16.72322,14.12871 -34.51269,27.03507 -52.43951,39.58434 -10.29812,7.20919 -21.99714,13.67048 -31.20901,22.24061 -6.02181,5.60353 -10.85872,12.3957 -16.2113,18.61228 -1.74798,2.03015 -5.09163,5.25893 -3.5509,8.27421 2.5096,4.91182 10.03343,-2.27614 12.26585,-3.99915 11.39186,-8.79735 23.12707,-17.27507 34.95967,-25.46938 11.27076,-7.80473 22.56149,-15.60199 33.71113,-23.57905 16.35987,-11.70275 33.85594,-22.75624 48.69384,-36.38303 2.7256,11.44804 0.22222,23.35181 1.4658,34.95967 1.50827,14.08002 8.99212,27.28978 18.72464,37.34569 13.78661,14.24482 32.53873,17.16271 48.47535,4.4586 4.24386,-3.38235 8.27546,-7.63369 9.5003,-13.08741 3.81184,-16.97417 -18.09663,-23.08837 -22.24435,-37.45679 -2.59701,-8.99962 0.77411,-19.56868 1.39964,-28.71688 1.07501,-15.69065 -0.0999,-31.83578 1.57817,-47.44528 1.07003,-9.95976 5.89447,-18.02171 13.52191,-24.39186 6.92326,-5.78209 17.89936,-11.52296 16.22628,-21.80484 -9.64761,2.50835 -18.44747,11.16337 -26.21976,17.21638 -3.70072,2.88293 -8.62379,7.54006 -13.73416,6.94699 -6.80464,-0.79159 -12.97627,-9.67135 -17.47983,-14.1749 -13.15484,-13.15483 -26.14609,-26.35211 -38.81773,-39.95392 -33.82599,-36.31312 -70.0954,-70.60357 -104.74794,-106.12759 -12.44064,-12.75279 -21.76988,-29.47849 -34.9784,-41.20248 19.95074,-19.03929 46.87469,-32.83088 69.91935,-47.87477 42.15139,-27.51827 83.90822,-55.72573 124.856,-84.99822 11.69027,-8.35786 23.44545,-16.62833 34.95968,-25.22716 13.06492,-9.75625 24.21706,-17.61717 19.97695,-35.42663 -10.45792,3.96417 -19.52373,12.04361 -28.71688,18.29889 -15.77305,10.73387 -31.80582,21.0657 -47.44527,31.9931 -43.86316,30.64965 -88.76137,59.71737 -132.34734,90.79528 -17.32628,12.35449 -34.40533,25.0973 -51.19097,38.17597 -3.81311,2.97032 -13.25097,13.31838 -18.41376,12.24462 -6.32145,-1.31348 2.15751,-13.31464 3.9055,-15.41222 10.41049,-12.49433 26.67923,-22.02461 39.47946,-31.98187 33.27037,-25.88014 67.41599,-50.62161 101.13335,-75.90868 20.88842,-15.66695 41.52586,-33.1855 63.67655,-46.97957 -4.78322,-9.91731 -11.38435,-5.58231 -18.72839,-0.864 -12.3133,7.90962 -24.37813,16.14637 -36.20825,24.77517 -33.27161,24.27201 -65.23849,50.25329 -97.38766,75.97363 -18.59855,14.87907 -37.14341,31.17528 -57.43375,43.69959 -0.44948,-10.47542 -3.29621,-20.73859 -3.74568,-31.214 h -6.2428 c -0.55936,7.08807 -1.60815,14.14493 -2.28487,21.22552 -1.05254,11.01479 -0.27968,21.98589 -12.69785,26.21976 3.00778,-23.80005 0,-48.41042 0,-72.41647 0,-10.20074 -1.27228,-21.38285 1.99645,-31.21401 3.95169,-11.88878 14.4708,-19.58865 24.2233,-26.58183 14.90532,-10.68893 31.21525,-20.30535 44.83579,-32.64861 16.25001,-14.72551 25.38572,-35.74502 42.56341,-49.63774 17.01163,-13.75787 34.6363,-26.99511 52.43952,-39.71044 8.37159,-5.97935 17.92806,-11.80488 9.98847,-22.47408 z"
         id="path12" />
      <path
         style="fill:#ffffff;stroke:none;stroke-width:0.77296573"
         d="m 858.24015,335.43054 c -2.15738,0.29483 -4.29196,2.34121 -6.04348,3.56161 l -11.33849,7.90415 -42.33054,29.50856 c -50.0981,34.92369 -100.32247,69.67192 -150.42439,104.59798 -16.58978,11.56457 -33.29753,22.94812 -49.88951,34.51504 -3.35249,2.33648 -8.48427,4.7014 -10.87067,8.16183 -1.49513,2.16732 -0.71207,5.36139 1.88219,6.12019 2.1082,0.61732 4.25801,-0.83152 5.96483,-1.93019 3.87396,-2.49534 7.48194,-5.41435 11.33857,-7.94447 16.64489,-10.91958 32.78346,-22.78212 49.13355,-34.17991 51.86321,-36.15357 103.84887,-72.1301 155.71582,-108.28684 l 43.08634,-30.03577 c 2.35465,-1.6409 5.99886,-3.364 7.4094,-6.05379 1.38327,-2.63841 -0.62284,-6.34861 -3.63362,-5.93839"
         id="path837" />
      <path
         style="fill:#ffffff;stroke:none;stroke-width:0.89213341"
         d="m 130.25316,737.88599 c 1.91452,6.24494 6.89172,2.23837 10.70558,-0.29707 9.27465,-6.16733 18.42347,-12.50861 27.65615,-18.73213 26.46961,-17.84267 53.00879,-35.58185 79.39988,-53.5405 12.93954,-8.80535 25.66047,-18.71339 39.25385,-26.45711 -1.94748,-6.35199 -6.96396,-2.12596 -10.70557,0.51387 -9.07746,6.40373 -18.58584,12.18476 -27.65616,18.59919 -25.48202,18.0211 -51.64558,35.24195 -77.61558,52.5547 -13.6015,9.06853 -26.74708,19.40212 -41.03815,27.35905"
         id="path831" />
      <path
         id="path843"
         d="m 132.78465,337.32693 c 2.97943,9.71854 10.72509,3.48341 16.66032,-0.46231 14.43348,-9.59777 28.67114,-19.46626 43.0393,-29.15149 41.19276,-27.76726 82.49378,-55.37348 123.56435,-83.32124 20.13688,-13.70314 39.93355,-29.12231 61.08797,-41.17331 -3.03074,-9.88514 -10.83753,-3.30847 -16.66032,0.7997 -14.12661,9.96568 -28.92381,18.96228 -43.03931,28.94458 -39.65583,28.04496 -80.37232,54.84454 -120.78757,81.78712 -21.16704,14.11271 -41.62457,30.19413 -63.86474,42.57695"
         style="fill:#ffffff;stroke:none;stroke-width:1.38836348" />
    </g>
  </g>
</svg>
