<?xml version="1.0" encoding="UTF-8" standalone="no"?>
<svg
   xmlns:dc="http://purl.org/dc/elements/1.1/"
   xmlns:cc="http://creativecommons.org/ns#"
   xmlns:rdf="http://www.w3.org/1999/02/22-rdf-syntax-ns#"
   xmlns:svg="http://www.w3.org/2000/svg"
   xmlns="http://www.w3.org/2000/svg"
   xmlns:sodipodi="http://sodipodi.sourceforge.net/DTD/sodipodi-0.dtd"
   xmlns:inkscape="http://www.inkscape.org/namespaces/inkscape"
   width="977"
   height="977"
   version="1.1"
   id="svg34"
   sodipodi:docname="K_white.svg"
   inkscape:version="0.92.4 (5da689c313, 2019-01-14)"
   inkscape:export-filename="C:\Users\andis\Dropbox\Kaifeck\Grafisches\Logo\K_white.png"
   inkscape:export-xdpi="100"
   inkscape:export-ydpi="100">
  <sodipodi:namedview
     pagecolor="#ffffff"
     bordercolor="#666666"
     borderopacity="1"
     objecttolerance="10"
     gridtolerance="10"
     guidetolerance="10"
     inkscape:pageopacity="0"
     inkscape:pageshadow="2"
     inkscape:window-width="1920"
     inkscape:window-height="1001"
     id="namedview15"
     showgrid="false"
     inkscape:pagecheckerboard="true"
     inkscape:zoom="0.64323043"
     inkscape:cx="448.1492"
     inkscape:cy="496.47345"
     inkscape:window-x="-9"
     inkscape:window-y="-9"
     inkscape:window-maximized="1"
     inkscape:current-layer="svg34" />
  <metadata
     id="metadata40">
    <rdf:RDF>
      <cc:Work
         rdf:about="">
        <dc:format>image/svg+xml</dc:format>
        <dc:type
           rdf:resource="http://purl.org/dc/dcmitype/StillImage" />
        <dc:title></dc:title>
      </cc:Work>
    </rdf:RDF>
  </metadata>
  <defs
     id="defs38" />
  <path
     style="fill:#ffffff;stroke:none;stroke-width:1.29892802"
     d="m 1255.0696,0.24298893 1.299,1.29892797 -1.299,-1.29892797 m -2.5979,1.29892797 -1.2988,2.597856 c 1.6405,-1.261519 1.808,-0.901067 1.2988,-2.597856 z"
     id="path10"
     inkscape:connector-curvature="0" />
  <path
     style="fill:#ffffff;stroke:none;stroke-width:1.53354394"
     d="m 475.33471,231.50133 c 0.71157,3.33085 1.69457,6.06977 3.06709,9.20126 11.05072,-4.1881 20.86693,-12.37723 30.67088,-18.9132 18.4838,-12.32203 36.72224,-24.99218 55.20758,-37.31725 51.27711,-34.18424 102.07576,-69.07237 153.35441,-103.258123 22.87587,-15.250793 44.97271,-32.623693 69.00947,-46.006319 -0.71156,-3.331011 -1.6961,-6.07038 -3.06709,-9.201264 -11.93556,3.803191 -21.90054,13.031443 -32.20443,19.934846 -20.49427,13.730427 -41.0315,27.369613 -61.34174,41.367042 -40.04852,27.603788 -81.10149,53.753768 -121.14999,81.357568 -30.57273,21.07243 -61.11325,44.77795 -93.54618,62.83544 M 570.41443,58.210854 C 494.4488,109.41742 415.82247,156.46348 340.38283,208.4583 c -17.63421,12.15486 -35.31292,24.27139 -53.67404,35.31137 -10.43577,6.27527 -23.9124,12.13034 -30.3206,23.0093 -8.11629,13.77888 -3.74906,35.23624 -5.21131,50.60082 -2.52282,26.51037 -2.65855,53.1833 -4.47749,79.74429 -1.3716,20.02962 -3.92602,39.79086 -1.39628,59.80821 h 9.20126 c 1.4446,-9.81928 4.90995,-19.17696 5.87379,-29.13733 3.73355,-38.5809 0.70068,-78.14174 5.74373,-116.54934 2.4098,-18.35806 -5.10977,-40.30922 17.51983,-47.53987 0,122.30626 1.53353,244.23068 1.53353,366.51701 0,46.57681 0.2469,93.15667 -2.92908,139.55252 -1.25902,18.38259 -0.11652,37.14703 -4.58375,55.20757 -8.81175,35.62424 -41.61885,60.54739 -67.63082,84.08423 -12.66233,11.4571 -30.31081,23.89261 -33.73797,41.66638 20.85435,-3.12536 39.66113,-21.01261 55.20758,-34.15969 34.01953,-28.76621 66.95914,-60.58572 95.70848,-94.658 11.36816,-13.47372 26.50731,-28.78003 31.57566,-46.00633 -5.45634,0.23771 -10.22106,1.1517 -15.33543,3.0671 0.002,-22.01096 3.57777,-43.97438 4.54082,-65.94239 1.27131,-29.03613 -0.0797,-58.34675 0.0613,-87.41201 0.13649,-28.53313 1.53202,-57.22879 1.53202,-85.87846 0,-17.99614 -0.066,-35.76531 1.40165,-53.67405 0.70084,-8.54798 1.61483,-18.55588 10.8667,-21.46961 0.0476,17.30604 1.74824,34.87892 2.92906,52.14049 0.74378,10.85135 -0.32816,21.43128 1.67158,32.20443 h 6.13417 c 0.1013,-12.28829 2.09022,-24.55817 2.92907,-36.80507 0.98299,-14.32175 0.36958,-29.15881 4.73865,-42.93922 h 3.06709 c 6.10963,11.79294 16.81377,21.30705 26.0641,30.67088 9.88217,10.00177 19.35641,20.49888 29.08368,30.67087 38.68824,40.4595 79.02046,80.4298 115.72583,122.68353 10.59985,12.20241 22.50781,23.26846 33.34845,35.2715 4.99475,5.53151 12.34502,11.07987 14.77723,18.40254 1.87552,5.64957 -1.80192,11.02464 -5.11437,15.33544 -7.47757,9.7288 -17.47474,17.54681 -26.79255,25.42003 -20.5403,17.35359 -42.39023,33.20583 -64.40885,48.61947 -12.64866,8.85469 -27.01799,16.79077 -38.33247,27.31703 -7.39629,6.88254 -13.33723,15.22503 -19.91153,22.86054 -2.14696,2.49354 -6.2538,6.45929 -4.3614,10.1628 3.08242,6.03295 12.32356,-2.79567 15.06553,-4.91195 13.99206,-10.80535 28.40583,-21.21811 42.93923,-31.28277 13.84331,-9.58617 27.71115,-19.16316 41.4057,-28.96098 20.09402,-14.37391 41.58357,-27.95036 59.80822,-44.68747 3.34772,14.06106 0.27295,28.68187 1.80037,42.93923 1.85253,17.29378 11.04458,33.51868 22.99855,45.86985 16.9334,17.4962 39.9657,21.0801 59.53986,5.47628 5.21252,-4.15438 10.16433,-9.37609 11.66874,-16.07462 4.6819,-20.84853 -22.22719,-28.35829 -27.32163,-46.00631 -3.18977,-11.05379 0.95081,-24.03524 1.71911,-35.27151 1.32038,-19.27205 -0.12266,-39.10231 1.93839,-58.27468 1.31426,-12.23308 7.23988,-22.13517 16.60829,-29.95931 8.5035,-7.10185 21.98489,-14.15308 19.92993,-26.7818 -11.84968,3.08088 -22.65811,13.71141 -32.20442,21.14602 -4.54542,3.54096 -10.59218,9.26108 -16.86899,8.53264 -8.3578,-0.97226 -15.93811,-11.87883 -21.46961,-17.41032 -16.15743,-16.15742 -32.11394,-32.36698 -47.67788,-49.07341 -41.54678,-44.6016 -86.09469,-86.71885 -128.65669,-130.35124 -15.28022,-15.66362 -26.73886,-36.20697 -42.96222,-50.60696 24.5045,-23.38501 57.57384,-40.32453 85.87846,-58.8022 51.77245,-33.79932 103.06029,-68.44514 153.35441,-104.39908 14.35857,-10.26555 28.79688,-20.42375 42.93923,-30.98527 16.047,-11.98311 29.74461,-21.63829 24.5367,-43.51277 -12.84495,4.869 -23.98003,14.79257 -35.27152,22.47562 -19.37325,13.18388 -39.0655,25.87395 -58.27466,39.29554 -53.87494,37.64543 -109.02118,73.34787 -162.55566,111.51932 -21.281,15.17441 -42.25835,30.82577 -62.87532,46.88964 -4.68345,3.6483 -16.2755,16.35831 -22.6167,15.03946 -7.76433,-1.61328 2.64996,-16.35371 4.79693,-18.93006 12.78668,-15.34617 32.76877,-27.05173 48.49066,-39.28174 40.86434,-31.78729 82.8037,-62.176 124.21706,-93.23486 25.6562,-19.24293 51.00414,-40.76009 78.21074,-57.70267 -5.875,-12.18093 -13.98284,-6.85647 -23.00315,-1.0612 -15.12382,9.71499 -29.94245,19.83178 -44.47279,30.4301 -40.86587,29.81211 -80.1292,61.72362 -119.61642,93.31463 -22.84368,18.27523 -45.62141,38.29105 -70.54302,53.67404 -0.55208,-12.86644 -4.04857,-25.47218 -4.60064,-38.3386 h -7.66772 c -0.68703,8.70592 -1.97521,17.37351 -2.80639,26.07025 -1.29278,13.52892 -0.34351,27.00417 -15.59613,32.20442 3.6943,-29.23242 0,-59.46011 0,-88.94555 0,-12.52906 -1.56268,-26.26349 2.45213,-38.33861 4.85367,-14.6024 17.77377,-24.05977 29.75228,-32.64914 18.30746,-13.12868 38.34014,-24.94005 55.06957,-40.10066 19.95908,-18.08662 31.18002,-43.90383 52.27852,-60.96757 20.89454,-16.89811 42.54205,-33.15675 64.40885,-48.774357 C 568.42846,78.470512 580.1662,71.3153 570.4144,58.210854 Z"
     id="path12"
     inkscape:connector-curvature="0" />
  <path
     style="fill:#ffffff;stroke:none;stroke-width:1.29892802"
     d="m 1248.575,92.466883 1.2989,1.298929 z"
     id="path14"
     inkscape:connector-curvature="0" />
  <path
     style="fill:#ffffff;stroke:none;stroke-width:0.94939536"
     d="m 940.85614,272.27233 c -2.6498,0.36212 -5.2716,2.87559 -7.4229,4.37454 l -13.9265,9.70828 -51.9925,36.2439 c -61.533,42.89503 -123.2211,85.57455 -184.7588,128.47249 -20.3764,14.20418 -40.8977,28.18604 -61.2768,42.39311 -4.1177,2.86978 -10.4208,5.77449 -13.3519,10.02477 -1.8364,2.66201 -0.8746,6.58512 2.3118,7.51712 2.5894,0.75822 5.2299,-1.02131 7.3263,-2.37076 4.7582,-3.0649 9.1897,-6.65017 13.9266,-9.75779 20.4441,-13.41198 40.2663,-27.98215 60.3483,-41.98148 63.701,-44.40564 127.5524,-88.59382 191.258,-133.00335 l 52.9208,-36.89144 c 2.8921,-2.01543 7.3681,-4.13183 9.1006,-7.43556 1.699,-3.24063 -0.765,-7.79769 -4.463,-7.29383"
     id="path837"
     inkscape:connector-curvature="0" />
  <path
     style="fill:#ffffff;stroke:none;stroke-width:1.09576309"
     d="m 46.705938,766.58834 c 2.351508,7.67034 8.464754,2.74927 13.149127,-0.36488 11.391591,-7.57502 22.628636,-15.3637 33.968684,-23.00775 32.511301,-21.91526 65.108051,-43.70341 97.522921,-65.76113 15.89299,-10.81517 31.51747,-22.98472 48.21355,-32.49595 -2.392,-7.80183 -8.55349,-2.61121 -13.14912,0.63116 -11.1494,7.86539 -22.82806,14.96594 -33.96869,22.84446 -31.29829,22.13442 -63.43369,43.28594 -95.331359,64.55032 C 80.40501,744.123 64.258944,756.81523 46.705938,766.58834"
     id="path831"
     inkscape:connector-curvature="0" />
  <path
     inkscape:connector-curvature="0"
     id="path843"
     d="m 49.815244,274.60157 c 3.659484,11.9368 13.173091,4.27849 20.463046,-0.56784 17.727919,-11.78846 35.21533,-23.90943 52.86303,-35.80532 50.59501,-34.10515 101.323,-68.01249 151.76794,-102.33934 24.73313,-16.83088 49.04839,-35.76948 75.03131,-50.571128 -3.7225,-12.141426 -13.31119,-4.06363 -20.46304,0.98223 -17.35101,12.24035 -35.52568,23.290428 -52.86304,35.551198 -48.70729,34.44622 -98.71732,67.36282 -148.35737,100.45505 -25.99842,17.33394 -51.125388,37.08595 -78.441876,52.29515"
     style="fill:#ffffff;stroke:none;stroke-width:1.70525777" />
</svg>
