<?xml version="1.0" encoding="UTF-8" standalone="no"?>
<svg
   xmlns:dc="http://purl.org/dc/elements/1.1/"
   xmlns:cc="http://creativecommons.org/ns#"
   xmlns:rdf="http://www.w3.org/1999/02/22-rdf-syntax-ns#"
   xmlns:svg="http://www.w3.org/2000/svg"
   xmlns="http://www.w3.org/2000/svg"
   id="svg34"
   version="1.1"
   height="977"
   width="1583">
  <metadata
     id="metadata40">
    <rdf:RDF>
      <cc:Work
         rdf:about="">
        <dc:format>image/svg+xml</dc:format>
        <dc:type
           rdf:resource="http://purl.org/dc/dcmitype/StillImage" />
        <dc:title></dc:title>
      </cc:Work>
    </rdf:RDF>
  </metadata>
  <defs
     id="defs38" />
  <path
     id="path4"
     d="M 886 0 C 874.538 0.0948486 866.641 5.6158006 857 11.150391 C 842.215 19.637791 827.426 28.231459 813 37.318359 C 805.734 41.895359 794.59269 46.1223 791.80469 55 C 789.90869 61.0392 791.24708 67.8746 791.83008 74 C 792.58608 81.941 792.54184 90.0318 793.08984 98 C 793.44384 103.138 794.58864 107.898 793.05664 113 C 789.53064 124.743 771.888 125.297 770 137 C 772.738 136.469 775.362 135.897 778 135 L 778 278 C 781.496 269.747 779.33992 259.723 780.16992 251 C 782.52992 226.197 782.87094 200.895 783.96094 176 C 784.59094 161.61 782.504 145.49 788 132 C 792.228 138.901 791 147.177 791 155 L 791 200 C 791 252.275 792 304.651 792 357 L 792 400 C 792 405.814 793.28173 413.57963 790.42773 418.89062 C 788.23773 422.96862 784.108 422.97705 780 422.99805 C 772.219 423.03905 764.577 422.62009 757 424.74609 C 735.679 430.73009 724.38939 451.542 711.65039 468 C 707.14439 473.821 698.477 481.091 700 489 C 711.184 483.785 715.943 469.70769 727 464.17969 C 732.311 461.52469 740.223 463.12637 746 462.98438 C 760.738 462.62338 775.226 463 790 463 C 790.995 486.535 789.07006 510.46 788.03906 534 C 787.10906 555.247 788.001 576.731 788 598 C 787.999 606.696 787 615.279 787 624 L 787 663 C 787 670.404 787.20316 678.04212 781.78516 683.82812 C 775.23616 690.82413 766.148 696.101 758 701 C 744.341 709.213 730.243 716.78788 717 725.67188 C 670.738 756.70287 624.866 788.36161 579 819.97461 C 562.066 831.64561 544.858 842.9407 528 854.7207 C 522.471 858.5837 512.203 862.885 511 870 C 520.488 868.17 529.779 860.33239 538 855.40039 C 555.97 844.61839 574.029 833.98122 592 823.19922 C 656.894 784.26322 723.616 745.128 783 698 C 783.512 701.8 785.47025 706.30105 783.78125 709.99805 C 780.72725 716.68305 771.675 721.37095 766 725.62695 C 751.129 736.77995 736.122 747.76713 721 758.57812 C 651.54 808.23413 583.217 859.44283 514 909.42383 C 493.324 924.35383 472.852 939.799 454 957 C 448.531 961.99 436.159 968.646 438 977 C 451.94 973.697 464.039 965.55278 476 958.05078 C 492.375 947.78078 508.678 937.40573 525 927.05273 C 560.368 904.62073 594.048 880.04691 629 857.00391 C 655.03 839.84291 681.958 823.92487 709 808.42188 C 735.052 793.48687 761.603 779.58459 788 765.30859 C 799.673 758.99459 816.8728 753.34225 825.4668 742.90625 C 831.6048 735.45225 827.42989 729.07 826.21289 721 C 824.57289 710.13 825.33884 696.967 826.08984 686 C 826.60584 678.465 827.24739 670.754 830.90039 664 C 835.13939 656.162 842.397 650.084 846 642 C 839.65 640.773 833.729 645.615 828 648 C 828 607.041 827.01262 565.945 828.01562 525 C 828.48762 505.72 830 486.294 830 467 L 833 467 C 833.258 473.013 834.246 479.031 835 485 C 842.132 481.258 840.05962 471.37745 847.01562 466.56445 C 852.45362 462.80245 859.184 465.95658 865 462.51758 C 870.367 459.34458 874.65409 454.394 878.99609 450 C 890.87209 437.981 904.414 421.268 907 404 C 899.808 407.495 896.062 414.66487 890 419.67188 C 881.065 427.05187 868.406 430.11584 857 428.71484 C 851.333 428.01884 844.3443 427.32319 840.2793 422.86719 C 836.5033 418.72819 837 413.202 837 408 L 837 380 C 837 373.45 834.52836 360.59962 839.31836 355.51562 C 843.56036 351.01263 849.88 347.74603 855 344.33203 C 864.054 338.29603 872.946 332.036 882 326 C 908.487 308.342 934.513 289.99003 961 272.33203 C 971.054 265.63003 980.948 258.705 991 252 C 993.309 250.46 999.64912 247.58727 999.07812 244.07227 C 998.46413 240.30227 993.706 242.98144 992 244.02344 C 985.866 247.77044 979.972 252.00095 974 256.00195 C 948.885 272.82695 924.154 290.229 899 307 C 878.235 320.845 857.692 335.041 837 349 C 837 297.285 836.70194 245.585 838.96094 194 C 839.43994 183.042 839 171.969 839 161 C 839 151.967 839.17586 142.953 844.13086 135 C 851.17986 123.684 863.525 116.82323 874 109.11523 C 892.362 95.603334 910.519 81.769128 929 68.423828 C 938.387 61.645828 951.03517 54.838494 957.45117 44.996094 C 962.01517 37.994994 962.956 29.9007 965 22 C 959.408 23.0093 954.801 26.287225 950 29.203125 C 940.778 34.804225 931.878 40.855109 923 46.974609 C 893.709 67.165009 865.485 90.2421 834 107 C 858.621 82.3793 889.431 63.759209 918 43.974609 C 924.106 39.746009 930.40405 35.612437 935.99805 30.710938 C 940.00405 27.201837 943.154 24.3076 941 19 C 935.083 21.2428 930.177 25.406509 925 28.974609 C 916.988 34.496509 908.918 39.919825 901 45.578125 C 875.727 63.637625 850.197 81.495 826 101 C 826 93.0091 822.32934 81.4339 825.15234 74 C 827.51534 67.7779 833.741 64.173816 839 60.666016 C 848.386 54.405216 857.653 47.982022 867 41.669922 C 875.736 35.770622 884.366 29.702297 893 23.654297 C 897.378 20.587297 901.479 17.7122 901 12 C 878.515 16.6411 859.888 27.3033 839 36 C 849.515 27.9172 861.275 21.636856 872 13.847656 C 877.368 9.9487562 883.135 6.13928 886 0 z M 836 142 C 836 194.356 833 246.633 833 299 C 833 312.322 832 325.625 832 339 C 832 344.562 833.23 350.858 829 355 C 829 300.944 828 247.021 828 193 C 828 181.285 826.94595 169.676 827.00195 158 C 827.03795 150.439 828.071 144.377 836 142 z "
     style="fill:#000000;stroke:none" />
  <path
     style="fill:#000000;stroke:none"
     d="M 1465.3848 14.039062 C 1463.1623 14.164793 1460.32 16.234237 1459 17.050781 C 1451.22 21.864781 1443.61 26.925 1436 32 C 1403.04 53.9741 1369.74 77.7233 1333 93 C 1338.72 86.0973 1348.47 82.060759 1356 77.318359 C 1372.19 67.117359 1388.27 56.2814 1405 47 C 1399.36 43.6452 1394.26 47.122906 1389 49.753906 C 1378.59 54.956806 1368.41 60.549006 1358 65.753906 C 1341.87 73.820706 1326.08 82.581059 1310 90.755859 C 1303.05 94.290259 1292.1196 98.203125 1287.8496 105.01562 C 1285.0396 109.50962 1284.5694 115.879 1283.6094 121 C 1280.6894 136.616 1281 152.182 1281 168 C 1286.77 167.038 1286.1791 161.965 1286.8691 157 C 1288.3791 146.13 1290.91 134.985 1291 124 C 1294.69 134.899 1292.3198 146.716 1293.0898 158 C 1294.4498 177.92 1294.97 198.009 1295 218 C 1295.01 225.56 1297.1395 233.463 1295.7695 241 C 1294.6595 247.121 1288.6795 250.969 1286.9395 257 C 1285.4295 262.225 1286.3401 267.666 1285.8301 273 C 1285.1601 280.014 1283.5698 286.974 1283.0898 294 C 1281.7598 313.358 1286.77 332.695 1287 352 C 1287.61 403.725 1285.75 455.318 1286 507 C 1286.05 516.687 1287.97 526.307 1288 536 L 1294 536 L 1294 270 L 1297 270 C 1301.03 321.01 1299.2698 372.867 1298.0098 424 C 1297.3798 449.966 1298 476.026 1298 502 C 1298 522.648 1297.6798 543.422 1299.0898 564 C 1299.6998 572.859 1303.5398 585.45805 1300.2598 593.99805 C 1297.2898 601.74205 1286.35 606.91386 1280 611.63086 C 1265.7 622.25386 1251.27 632.71405 1237 643.37305 C 1230.28 648.39405 1221.64 653.189 1218 661 C 1226.4 660.803 1232.21 655.77375 1239 651.34375 C 1248.96 644.84075 1259.1 638.597 1269 632 C 1284.33 621.784 1299.63 611.54505 1314 599.99805 C 1320.76 594.56405 1329.1602 588.932 1333.1602 581 C 1336.8402 573.719 1334.9299 567.571 1334.1699 560 C 1333.3299 551.642 1333.5198 542.379 1334.0898 534 C 1335.7498 509.757 1334.88 485.326 1335 461 C 1335.05 451.676 1336 442.378 1336 433 C 1336 416.423 1333.97 398.32 1337 382 C 1338.56 385.489 1339.2 388.678 1343 390 C 1343.82 383.527 1346.22 378.168 1348 372 C 1361.89 376.436 1371.8299 394.988 1380.4199 406 C 1403.1899 435.168 1426.2904 464.105 1449.4004 493 C 1456.5804 501.974 1463.9591 510.817 1470.8691 520 C 1473.3791 523.335 1477.1505 527.478 1476.4805 532 C 1475.3705 539.402 1466.22 545.73925 1461 550.28125 C 1445.59 563.68425 1428.52 574.482 1414 589 L 1417 594 C 1424.15 590.977 1430.5 585.28591 1437 581.00391 C 1450.7 571.96891 1464.79 562.097 1479 554 C 1480.05 563.424 1476.8809 572.642 1477.1309 582 C 1477.3409 590.205 1481.1601 597.803 1486.3301 604 C 1490.0601 608.484 1495.03 614.30156 1501 615.60156 C 1507.12 616.93556 1513.58 613.55867 1519 611.13867 C 1523.16 609.28067 1529.3593 606.92194 1530.5293 601.96094 C 1531.7493 596.76694 1527.4901 591.783 1524.5801 588 C 1520.0701 582.143 1516.3808 576.473 1515.3008 569 C 1514.0608 560.409 1517.5909 552.467 1517.9609 544 C 1518.6909 527.401 1518 510.617 1518 494 C 1514.73 496.013 1510.5199 500.12453 1506.4199 499.89453 C 1501.9999 499.64653 1498.8599 494.229 1496.6699 491 C 1490.6899 482.198 1484.8692 473.303 1478.1992 465 C 1457.4992 439.25 1438.3591 412.098 1416.8691 387 C 1409.2191 378.065 1401.37 369.27291 1393 361.00391 C 1387.94 356.00391 1382.12 351.849 1378 346 C 1387.57 342.973 1396.7 336.53 1405 331 C 1414.62 324.594 1424.38 318.412 1434 312 C 1468.57 288.952 1503.22 266.15517 1536 240.57617 C 1549.22 230.25717 1563.7405 220.20155 1575.8105 208.56055 C 1577.8705 206.57755 1586.9095 194.76533 1578.9395 194.73633 C 1573.7895 194.71733 1567.11 201.261 1563 204 L 1525 229.33203 C 1481.92 258.04903 1438.88 286.95183 1395 314.42383 C 1383.66 321.52683 1372.44 328.84987 1361 335.79688 C 1355.71 339.00887 1350.32 343.645 1344 344 C 1359.11 327.599 1380.21 316.86927 1399 304.94727 C 1424.74 288.61627 1449.68 270.96205 1475 253.99805 C 1486.02 246.61605 1497.23 239.31727 1508 231.57227 C 1511.06 229.37127 1517.7891 225.3965 1517.7891 221.0625 C 1517.7891 214.5955 1508.98 220.685 1507 222 L 1476 242.66797 C 1448.68 260.87997 1421.6 279.52959 1394 297.30859 C 1378.18 307.49659 1360.94 316.598 1346 328 C 1345.81 323.626 1344.3598 319.354 1344.3398 315 C 1344.2698 300.693 1346 286.296 1346 272 C 1346 261.836 1344.3806 250.763 1350.6406 242 C 1357.7506 232.03 1370.77 226.58144 1381 220.39844 C 1391.74 213.90444 1400.5798 206.133 1409.0898 197 C 1422.4998 182.604 1439.48 175.69937 1455 164.35938 C 1458.77 161.60637 1468.3098 155.08697 1465.7598 149.16797 C 1464.0698 145.24997 1459.47 147.92616 1457 149.28516 C 1449.23 153.55516 1441.61 158.24478 1434 162.80078 C 1401.28 182.39478 1368.66 203.082 1335 221 C 1337.66 215.545 1343.16 212.31438 1348 208.85938 C 1359.24 200.84537 1371.58 194.43225 1383 186.65625 C 1388.95 182.60325 1398.87 177.236 1396 169 C 1388.91 171.244 1382.46 175.92017 1376 179.57617 C 1361.1 188.01217 1346.83 197.553 1332 206 C 1332 185.653 1331 165.272 1331 145 C 1331 137.565 1329.0509 126.803 1332.4609 120 C 1336.8909 111.149 1349.05 105.3248 1357 100 C 1374.93 87.985 1392.42 75.235884 1410 62.708984 C 1425.65 51.552884 1441.38 40.500716 1457 29.291016 C 1460.11 27.060616 1470.4601 20.365447 1467.8301 15.373047 C 1467.277 14.326734 1466.395 13.981912 1465.3848 14.039062 z M 1335 251 C 1337.39 256.707 1336 264.846 1336 271 L 1336 310 C 1336 315.619 1337.19 322.784 1335 328 C 1331.71 302.499 1327.89 276.314 1335 251 z "
     id="path8" />
  <path
     id="path10"
     d="M838 36L839 37L838 36M836 37L835 39C836.263 38.0288 836.392 38.3063 836 37z"
     style="fill:#ffffff;stroke:none" />
  <path
     id="path12"
     d="M236 203C236.464 205.172 237.105 206.958 238 209C245.206 206.269 251.607 200.929 258 196.667C270.053 188.632 281.946 180.37 294 172.333C327.437 150.042 360.562 127.292 394 105C408.917 95.0552 423.326 83.7266 439 75C438.536 72.8279 437.894 71.0416 437 69C429.217 71.48 422.719 77.4976 416 81.9992C402.636 90.9526 389.244 99.8465 376 108.974C349.885 126.974 323.115 144.026 297 162.026C277.064 175.767 257.149 191.225 236 203M298 90C248.464 123.391 197.193 154.069 148 187.974C136.501 195.9 124.973 203.801 113 211C106.195 215.092 97.4071 218.91 93.2284 226.004C87.9359 234.989 90.7837 248.981 89.8302 259C88.1851 276.287 88.0966 293.68 86.9105 311C86.0161 324.061 84.3504 336.947 86 350L92 350C92.942 343.597 95.2017 337.495 95.8302 331C98.2648 305.842 96.2871 280.045 99.5756 255C101.147 243.029 96.2436 228.715 111 224C111 303.754 112 383.259 112 463C112 493.372 112.161 523.746 110.09 554C109.269 565.987 110.014 578.223 107.101 590C101.355 613.23 79.962 629.482 63 644.83C54.7431 652.301 43.2348 660.41 41 672C54.5988 669.962 66.8624 658.298 77 649.725C99.1836 630.967 120.663 610.218 139.41 588C146.823 579.214 156.695 569.233 160 558C156.442 558.155 153.335 558.751 150 560C150.002 545.647 152.333 531.325 152.961 517C153.79 498.066 152.909 478.953 153.001 460C153.09 441.394 154 422.682 154 404C154 392.265 153.957 380.678 154.914 369C155.371 363.426 155.967 356.9 162 355C162.031 366.285 163.14 377.744 163.91 389C164.395 396.076 163.696 402.975 165 410L169 410C169.066 401.987 170.363 393.986 170.91 386C171.551 376.661 171.151 366.986 174 358L176 358C179.984 365.69 186.964 371.894 192.996 378C199.44 384.522 205.618 391.367 211.961 398C237.189 424.383 263.489 450.447 287.424 478C294.336 485.957 302.101 493.173 309.17 501C312.427 504.607 317.22 508.225 318.806 513C320.029 516.684 317.631 520.189 315.471 523C310.595 529.344 304.076 534.442 298 539.576C284.606 550.892 270.358 561.229 256 571.28C247.752 577.054 238.382 582.229 231.004 589.093C226.181 593.581 222.307 599.021 218.02 604C216.62 605.626 213.942 608.212 215.176 610.627C217.186 614.561 223.212 608.804 225 607.424C234.124 600.378 243.523 593.588 253 587.025C262.027 580.774 271.07 574.529 280 568.14C293.103 558.767 307.116 549.914 319 539C321.183 548.169 319.178 557.703 320.174 567C321.382 578.277 327.376 588.857 335.171 596.911C346.213 608.32 361.232 610.657 373.996 600.482C377.395 597.773 380.624 594.368 381.605 590C384.658 576.405 367.111 571.508 363.789 560C361.709 552.792 364.409 544.327 364.91 537C365.771 524.433 364.83 511.502 366.174 499C367.031 491.023 370.895 484.566 377.004 479.464C382.549 474.833 391.34 470.235 390 462C382.273 464.009 375.225 470.941 369 475.789C366.036 478.098 362.093 481.828 358 481.353C352.55 480.719 347.607 473.607 344 470C333.464 459.464 323.059 448.894 312.91 438C285.818 408.916 256.769 381.452 229.015 353C219.051 342.786 211.579 329.39 201 320C216.979 304.751 238.543 293.705 257 281.656C290.76 259.616 324.204 237.024 357 213.579C366.363 206.885 375.778 200.261 385 193.374C395.464 185.56 404.396 179.264 401 165C392.624 168.175 385.363 174.646 378 179.656C365.367 188.253 352.526 196.528 340 205.28C304.869 229.828 268.909 253.109 234 278C220.123 287.895 206.444 298.101 193 308.576C189.946 310.955 182.387 319.243 178.252 318.383C173.189 317.331 179.98 307.719 181.38 306.039C189.718 296.032 202.748 288.399 213 280.424C239.647 259.696 266.995 239.88 294 219.627C310.73 207.079 327.259 193.048 345 182C341.169 174.057 335.882 177.529 330 181.308C320.138 187.643 310.475 194.24 301 201.151C274.352 220.591 248.749 241.4 223 262C208.104 273.917 193.251 286.969 177 297C176.64 288.61 174.36 280.39 174 272L169 272C168.552 277.677 167.712 283.329 167.17 289C166.327 297.822 166.946 306.609 157 310C159.409 290.938 157 271.227 157 252C157 243.83 155.981 234.874 158.599 227C161.764 217.478 170.189 211.311 178 205.71C189.938 197.149 203.001 189.447 213.91 179.561C226.925 167.767 234.242 150.932 248 139.805C261.625 128.786 275.741 118.184 290 108C296.705 103.211 304.359 98.5452 298 90z"
     style="fill:#000000;stroke:none" />
  <path
     id="path14"
     d="M833 107L834 108L833 107z"
     style="fill:#ffffff;stroke:none" />
  <path
     id="path16"
     d="M1230 114.992C1226.78 115.723 1223.69 118.54 1221 120.333C1215.28 124.146 1209.66 128.075 1204 131.974C1186.15 144.279 1168.04 156.303 1150 168.333C1084.8 211.819 1020.17 256.142 955 299.667C932.625 314.611 910.386 329.743 888 344.667C883.501 347.666 877.076 350.563 873.607 354.76C871.342 357.501 872.463 361.859 876.109 362.638C879.325 363.325 882.433 361.283 885 359.651C890.066 356.431 895.006 352.996 900 349.667C921.721 335.186 943.279 320.48 965 306C1033.59 260.274 1101.41 213.393 1170 167.667C1189.04 154.975 1208.25 142.391 1227 129.28C1229.74 127.363 1234.15 125.136 1235.38 121.816C1236.7 118.257 1233.92 114.099 1230 114.992M1354 265L1356 269C1362.8 267.403 1368.34 262.237 1374 258.341C1385.05 250.743 1395.92 242.888 1407 235.344C1435.51 215.932 1463.74 196.06 1492 176.28C1506.44 166.173 1520.69 154.722 1536 146C1533.67 138.348 1527.4 144.043 1523 147C1512.22 154.251 1501.64 161.831 1491 169.28C1460.4 190.702 1429.6 211.858 1399 233.28C1384.11 243.7 1367.83 253.216 1354 265z"
     style="fill:#000000;stroke:none" />
  <path
     id="path20"
     d="M700.995 146.161C698.141 146.534 695.317 149.123 693 150.667L678 160.667L622 198C555.724 242.184 489.281 286.146 423 330.333C401.053 344.964 378.95 359.366 357 374C352.565 376.956 345.776 379.948 342.619 384.326C340.641 387.068 341.677 391.109 345.109 392.069C347.898 392.85 350.742 391.017 353 389.627C358.125 386.47 362.898 382.777 368 379.576C390.02 365.761 411.37 350.753 433 336.333C501.611 290.593 570.384 245.077 639 199.333L696 161.333C699.115 159.257 703.936 157.077 705.802 153.674C707.632 150.336 704.978 145.642 700.995 146.161M666 213C655.563 221.413 645.181 229.856 635 238.579C629.593 243.212 623.274 248.305 623.059 256C622.894 261.858 626.169 267.099 629.011 272C630.506 274.579 633.107 277.806 632.701 280.985C631.943 286.92 622.825 290.864 619.323 295.169C617.883 296.938 616.484 300.102 619.323 301.357C623.816 303.345 630.533 298.951 634 296.564C642.911 290.429 651.966 284.098 659.999 276.829C663.769 273.419 668.047 269.497 667.851 264C667.451 252.765 653.77 245.593 653.358 235C652.999 225.761 669.249 222.503 666 213z"
     style="fill:#000000;stroke:none" />
  <path
     id="path24"
     d="M 1226 292 C 1211.92 295.343 1198.86 305.42503 1187 313.33203 C 1164.71 328.19303 1142.82 343.72233 1122 360.61133 C 1112.09 368.65633 1096.23 378.456 1092 391 L 1105 391 C 1105 409.049 1104 426.996 1104 445 C 1104 459.163 1105.1701 473.902 1103.8301 488 C 1102.7901 498.913 1099.58 509.258 1098 520 C 1102.12 518.723 1106.51 515.47261 1111 516.47461 C 1115.49 517.47661 1118.91 521.91 1122 525 C 1129.44 532.43 1141.2693 541.007 1143.2793 552 C 1145.6893 565.219 1129.7 576.47728 1121 583.61328 C 1119.45 584.88728 1109.9606 591.39464 1112.8906 593.93164 C 1115.3806 596.08464 1120.17 591.70914 1122 590.36914 C 1130.46 584.17314 1139.09 578.33959 1148 572.80859 C 1178.76 553.71159 1207.76 531.93891 1238 512.00391 C 1244.67 507.60591 1251.66 503.64767 1258 498.76367 C 1262.05 495.64067 1264.87 493.314 1264 488 C 1256.31 489.806 1249.59 495.76627 1243 499.94727 C 1230.45 507.91127 1217.92 515.91725 1205 523.28125 C 1200.62 525.78025 1196.28 528.37973 1192 531.05273 C 1190.01 532.29673 1187.5398 534.44291 1185.0098 534.12891 C 1181.3298 533.67091 1178.3 528.516 1176 526 C 1168.22 517.474 1157.3095 508.337 1153.7695 497 C 1149.6395 483.737 1153 467.75 1153 454 C 1153 439.432 1153.9102 424.533 1152.9102 410 C 1152.2002 399.636 1152 389.416 1152 379 C 1152 373.865 1151.2506 368.031 1152.3906 363 C 1153.2106 359.414 1155.61 356.366 1157 353 C 1170.46 356.403 1180.58 371.592 1190 381 C 1193.26 384.253 1196.63 388.37258 1201 390.14258 C 1209.69 393.65958 1217.79 386.74116 1224 381.53516 C 1227.18 378.86616 1230.5708 375.542 1229.5508 371 C 1228.5908 366.768 1224.73 363.171 1222 360 C 1216.51 353.624 1210.9909 346.96284 1204.9609 341.08984 C 1201.5009 337.71584 1193.0095 332.793 1194.0195 327 C 1194.8195 322.451 1200.78 318.08192 1204 315.16992 C 1211.87 308.05092 1219.86 300.72 1226 292 z M 697 298 C 689.774 300.52 684.057 305.58295 678 310.12695 C 667.308 318.14595 656.871 326.50706 646 334.28906 C 637.005 340.72806 627.62575 346.18 623.46875 357 C 619.08075 368.422 621.71108 381.24 622.83008 393 C 624.09508 406.287 623.99816 419.694 624.91016 433 C 626.45616 455.585 621.62884 478.529 620.08984 501 C 619.20384 513.94 621.05908 527.086 619.83008 540 C 619.05708 548.125 618.27328 556.151 613.36328 563 C 610.24828 567.345 603.60527 570.65267 602.32227 576.01367 C 599.79927 586.54767 612.485 581.836 617 579 L 616 614 C 621.491 613.047 620.79883 608.705 621.42383 604 C 622.56283 595.436 622.01 586.272 624.75 578 C 627.759 568.914 635.058 562.9567 642 556.8457 C 650.047 549.7617 657.908 542.45083 666 535.42383 C 672.644 529.65483 680.507 523.251 684 515 C 678.898 513.726 674.623 515.838 670 518 C 668.443 505.68 670.41894 493.363 670.96094 481 C 671.83294 461.081 671 440.94 671 421 C 671 401.377 670.46637 381.649 669.98438 362 C 669.79538 354.286 668.33116 346.769 669.28516 339 C 670.32716 330.521 673.26006 322.13658 680.03906 316.51758 C 685.80106 311.74158 698.248 306.833 697 298 z M 1027.3145 313.2207 C 1023.5837 313.37771 1018.6512 317.59488 1016 319.20312 C 1004.5 326.18514 993.367 333.75227 982 340.94727 C 968.918 349.22727 954.828 355.83991 941 362.75391 C 934.491 366.00891 925.96214 368.77163 921.70312 375.01562 C 916.08514 383.25263 919.04405 398.468 918.99805 408 C 918.93405 421.321 917.45306 434.599 918.03906 448 C 918.64506 461.833 920.83431 475.214 918.19531 489 C 915.54831 502.827 908.713 514.50922 898 523.69922 C 892.63 528.30622 882.513 533.797 886 542 C 898.384 534.944 909.84 524.857 921 516 C 925.113 524.258 931.76683 531.727 937.42383 539 C 939.98383 542.291 943.72872 545.884 944.88672 550 C 946.57772 556.014 939.32803 559.06706 936.33203 563.03906 C 933.95003 566.19706 935.83083 569.57178 934.04883 572.67578 C 931.24983 577.55078 923.662 581.133 919 584 C 920.532 586.206 922.138 588.055 924 590 C 936.484 582.792 946.119 571.124 958 563 C 958.011 567.08 958.49 570.963 959 575 L 963 575 C 961.985 557.853 973.538 546.82269 986 536.80469 C 1003.8 522.49269 1022.15 508.85261 1040 494.59961 C 1046.28 489.58961 1052.7 484.77106 1059 479.78906 C 1062.61 476.93806 1065.79 474.78 1066 470 C 1057.02 472.11 1048.46 480.29917 1041 485.57617 C 1026.44 495.87217 1011.68 505.90539 997 516.02539 C 991.679 519.69339 985.25762 526.1992 979.01562 528.0332 C 972.33362 529.9972 967.4342 515.719 966.1582 511 C 964.0562 503.229 965.96005 495.836 965.99805 488 C 966.04305 478.667 966 469.333 966 460 C 966 455.565 965.25259 450.311 966.43359 446 C 968.07659 440.003 973.834 437.44967 979 435.13867 C 985.439 432.25767 991.692 428.90991 998 425.75391 C 1025.84 411.82291 1052.41 393.64561 1078 375.97461 C 1085.85 370.55261 1093.37 364.60105 1101 358.87305 C 1105.6 355.42305 1110.17 353.186 1108 347 C 1100.93 348.617 1094.27 353.42095 1088 357.00195 C 1075.1 364.37695 1062.45 372.21875 1050 380.34375 C 1045.31 383.40575 1040.73 386.65239 1036 389.65039 C 1033.63 391.15339 1030.9195 393.04128 1028.0195 391.86328 C 1023.7895 390.15128 1021.3992 384.662 1019.1992 381 C 1014.4992 373.167 1009.5093 365.492 1004.2793 358 C 1002.2293 355.06 998.04414 350.944 998.82812 347 C 1000.2001 340.084 1011.95 334.53777 1017 330.38477 C 1021.08 327.03177 1026.5791 323.30994 1029.6191 318.96094 C 1030.8891 317.14594 1031.5201 314.34488 1028.8301 313.42188 C 1028.3563 313.25912 1027.8474 313.19827 1027.3145 313.2207 z M 555.88672 316.98242 C 553.5702 316.91178 550.02375 320.16669 549 321.05469 C 540.631 328.30969 532.145 335.497 524 343 C 523.227 339.253 522.35 335.579 521 332 C 517.681 339.39 517.18194 347.06 512.21094 354 C 505.40894 363.498 495.395 370.70888 486 377.42188 C 473.113 386.63187 459.892 395.36213 447 404.57812 C 438.671 410.53213 430.3 416.43083 422 422.42383 C 417.998 425.31383 413.235 427.727 413 433 C 421.582 431.345 429.579 424.453 437 420 C 452.378 410.773 468.024 401.86909 483 391.99609 C 488.82 388.15909 496.27037 380.67572 502.98438 378.88672 C 509.73138 377.08872 514.89991 391.177 516.25391 396 C 518.94291 405.578 516.61006 415.195 517.03906 425 C 517.51906 435.945 520.36708 449.29984 517.70508 460.08984 C 514.92608 471.35184 497.09 476.29983 488 481.42383 C 459.755 497.34683 434.304 516.29263 408 535.14062 L 385 551.57812 C 379.937 555.19913 375.388 557.38 378 564 C 385.234 561.912 391.589 557.24639 398 553.40039 C 411.036 545.57839 423.441 536.89075 436 528.34375 C 440.721 525.13175 451.88794 514.57581 457.96094 517.13281 C 462.30494 518.96181 465.40761 525.292 467.97461 529 C 474.84161 538.916 481.123 551.865 490 560 C 478.809 571.183 466.294 580.939 455 592 L 457 596 C 468.17 593.846 478.836 584.37139 488 578.02539 C 505.683 565.77939 523.782 554.28705 541 541.37305 C 546.565 537.19905 552.181 533.15975 558 529.34375 C 560.984 527.38675 564.69264 525.68203 565.68164 521.95703 C 567.73064 514.24303 566 503.971 566 496 C 566 482.093 566.86016 467.874 565.91016 454 C 565.03316 441.196 562.46178 426.762 564.30078 414 C 566.62278 397.891 577.85486 390.02716 588.13086 378.91016 C 590.45786 376.39316 598.60514 369.31705 596.74414 365.37305 C 594.84014 361.33905 588.658 367.39395 587 368.75195 C 581.05 373.62495 575.041 378.43727 569 383.19727 C 566.911 384.84327 564.03984 387.80803 561.08984 386.83203 C 558.26484 385.89603 556.30117 382.208 554.57617 380 C 549.83917 373.939 544.82305 368.087 540.12305 362 C 538.21305 359.525 535.79803 356.34691 536.70703 353.00391 C 538.19203 347.54691 545.747 343.605 549 339 C 547.255 338.11 545.875 337.547 544 337 C 547.258 332.356 551.29756 328.318 554.97656 324 C 556.16556 322.604 558.4283 320.46405 557.6543 318.37305 C 557.2943 317.3998 556.65889 317.00597 555.88672 316.98242 z M 633 352 L 636 352 C 636 400.966 636.079 450.044 636 499 C 635.992 503.72 635.13063 508.302 635.01562 513 C 634.72462 524.849 638.452 543.385 626 550 C 627.672 511.044 627.33306 471.975 629.03906 433 C 630.21906 406.054 632.444 378.952 633 352 z M 1143 365 C 1143 406.715 1146 448.279 1146 490 C 1136.94 488.431 1138 474.001 1138 467 C 1138 441.941 1137 417.041 1137 392 C 1137 384.795 1133.56 366.57 1143 365 z M 963 368 C 973.695 374.317 979.91297 389.847 986.66797 400 C 988.86997 403.31 993.55334 408.47445 992.15234 412.81445 C 991.17434 415.84345 987.57505 417.38014 984.99805 418.74414 C 978.41605 422.22614 972.009 426.449 965 429 C 965 417.611 964 406.377 964 395 C 964 386.174 965.053 376.624 963 368 z M 954 374 C 960.905 385.306 957.94584 402.513 957.08984 415 C 956.73484 420.194 958.035 426.15 956 431 C 954.518 412.219 954 392.839 954 374 z M 524 405 C 531.505 415.032 530.37578 433.238 529.05078 445 C 528.44078 450.415 527.904 455.96 524 460 L 524 405 z M 957 449 C 959.855 455.361 959 463.17 959 470 C 959 481.058 959.773 492.002 960 503 C 955.522 500.386 955.19245 494.832 954.43945 490 C 952.43145 477.119 953.067 461.403 957 449 z M 519 478 C 519.857 497.966 522.945 518.007 523 538 C 517.757 536.398 515.25503 531.374 512.33203 527 C 505.45803 516.712 494.772 505.837 491 494 C 499.912 488.544 509.182 481.595 519 478 z M 529 479 C 530.7 483.051 529.75692 487.668 530.16992 492 C 531.11992 501.985 531.60106 511.978 532.03906 522 C 532.26906 527.255 535.077 533.557 529 536 L 529 479 z "
     style="fill:#000000;stroke:none" />
  <path
     id="path28"
     d="M1182 526C1191.75 524.115 1200.73 515.303 1209 510.053C1230.08 496.679 1250.19 481.142 1272 469L1272 467C1264.75 465.822 1255.89 474.12 1250 478.003C1233.65 488.78 1217.59 500.033 1201 510.424C1194.96 514.207 1184.19 518.886 1182 526M654 560C666.653 555.204 678.951 544.238 690 536.424C708.42 523.398 727.292 510.941 746 498.33C752.695 493.817 759.29 489.162 766 484.667C770.033 481.965 773.722 480.155 772 475C761.379 480.047 751.681 488.302 742 494.975C721.731 508.945 701.47 522.995 681 536.667C674.283 541.153 667.687 545.803 661 550.33C657.064 552.995 653.258 554.86 654 560z"
     style="fill:#000000;stroke:none" />
  <path
     id="path32"
     d="M902 625L903 628C913.784 625.915 924.037 615.712 933 609.67C954.083 595.458 974.918 580.88 996 566.67C1002.36 562.383 1008.72 558.126 1015 553.72C1018.9 550.984 1022.75 549.164 1022 544C1008.12 549.261 995.251 561.319 983 569.656C955.965 588.053 929.038 606.608 902 625M414 702C416.146 709 421.725 704.509 426 701.667C436.396 694.754 446.651 687.646 457 680.67C486.67 660.67 516.418 640.786 546 620.656C560.504 610.786 574.763 599.68 590 591C587.817 583.88 582.194 588.617 578 591.576C567.825 598.754 557.167 605.234 547 612.424C518.437 632.624 489.11 651.927 460 671.333C444.754 681.498 430.019 693.081 414 702M1226 717C1228.71 724.334 1234.36 719.456 1239 716.33C1249.71 709.116 1260.46 701.881 1271 694.424C1299.94 673.961 1329.7 654.594 1359 634.656C1375.48 623.444 1391.58 610.698 1409 601C1408.6 598.698 1408.04 597.096 1407 595C1391.07 602.536 1376.64 615.192 1362 624.999C1332.89 644.498 1303.85 664.144 1275 684.025C1258.94 695.096 1243.05 707.509 1226 717M205 620L202 615C195.492 617.467 189.772 622.151 184 626C173.283 633.146 162.72 640.52 152 647.667C116.946 671.036 82.054 694.631 47 718C34.955 726.03 22.8657 733.989 11 742.28C8.62265 743.941 -1.12801 748.566 1.89043 752.589C4.75644 756.408 12.502 749.332 15 747.667C27.0036 739.664 39.2211 731.905 51 723.576C86.0409 698.796 122.289 675.474 158 651.667C173.642 641.238 190.095 631.457 205 620M605 777C621.927 768.992 637.653 755.444 653 744.72C681.154 725.047 709.443 705.415 738 686.333C748.762 679.142 759.24 671.528 770 664.333C771.478 663.345 782.244 656.393 775.752 654.83C772.434 654.031 768.487 657.967 766 659.656C757.291 665.568 748.594 671.498 740 677.576C706.683 701.137 672.901 724.285 639 746.999C629.93 753.076 620.911 759.268 612 765.576C607.337 768.877 602.819 770.79 605 777z"
     style="fill:#000000;stroke:none" />
</svg>
