<?xml version="1.0" encoding="UTF-8" standalone="no"?>
<svg
   xmlns:dc="http://purl.org/dc/elements/1.1/"
   xmlns:cc="http://creativecommons.org/ns#"
   xmlns:rdf="http://www.w3.org/1999/02/22-rdf-syntax-ns#"
   xmlns:svg="http://www.w3.org/2000/svg"
   xmlns="http://www.w3.org/2000/svg"
   id="svg8"
   version="1.1"
   viewBox="0 0 210 210"
   height="210mm"
   width="210mm">
  <defs
     id="defs2" />
  <metadata
     id="metadata5">
    <rdf:RDF>
      <cc:Work
         rdf:about="">
        <dc:format>image/svg+xml</dc:format>
        <dc:type
           rdf:resource="http://purl.org/dc/dcmitype/StillImage" />
        <dc:title></dc:title>
      </cc:Work>
    </rdf:RDF>
  </metadata>
  <g
     transform="translate(0,-87)"
     id="layer1">
    <path
       d="m 124.89466,137.80981 c 0.32727,-0.1309 0.71832,-0.11481 0.86897,0.0359 0.15062,0.15062 -0.1172,0.25781 -0.59505,0.23813 -0.52817,-0.0217 -0.63559,-0.1292 -0.27392,-0.27391 z m -41.624952,7.11023 c 0.520593,-0.97273 0.853987,-1.07251 2.05006,-0.61353 0.606258,0.23263 0.462667,0.41997 -0.695022,0.90675 -1.884014,0.79215 -1.930525,0.7821 -1.355038,-0.29322 z m -6.800527,7.79517 c 0,-0.23665 0.306022,-0.68423 0.680041,-0.99463 0.37405,-0.31042 0.680062,-0.42285 0.680062,-0.24981 0,0.17301 -0.306012,0.62059 -0.680062,0.99462 -0.374019,0.37403 -0.680041,0.48644 -0.680041,0.24982 z m -1.360104,7.16985 c 0,-0.24725 0.40802,-0.70435 0.906739,-1.01579 0.49871,-0.31146 0.9075,-0.87422 0.908428,-1.25063 0.0019,-0.84642 1.458823,-3.27826 2.718054,-4.53749 0.517156,-0.51716 0.840834,-1.1012 0.719285,-1.29786 -0.121491,-0.19667 0.640276,-1.29568 1.692935,-2.44226 2.853972,-3.10855 5.748876,-3.52084 5.748876,-0.81873 0,0.9907 -0.341088,1.58385 -1.246602,2.16776 -0.685651,0.4421 -2.594649,2.12993 -4.242208,3.75072 -5.68231,5.58991 -7.205507,6.74079 -7.205507,5.44428 z m 9.305335,3.18797 c -0.384497,-0.62212 -0.04424,-1.08915 0.625917,-0.85885 0.274404,0.0942 0.309479,0.41438 0.08503,0.77566 -0.283359,0.4561 -0.46717,0.4776 -0.710921,0.0831 z m -14.224456,0.88851 c 0.260776,-0.74807 0.647573,-1.36011 0.859567,-1.36011 0.211984,0 0.17207,0.61204 -0.08877,1.36011 -0.260775,0.74805 -0.647573,1.36011 -0.859567,1.36011 -0.211973,0 -0.172069,-0.61206 0.08877,-1.36011 z m 60.205054,-11.67425 c 0.0392,-0.88646 -2.45979,-0.67148 -3.32642,0.28614 -0.71306,0.78791 -0.71562,0.90905 -0.0337,1.59097 0.68192,0.68193 0.837,0.66015 2.03658,-0.28614 0.71415,-0.56334 1.30973,-1.27929 1.32352,-1.59097 z m 7.0473,13.596 c -0.24661,-0.20925 -1.67247,-0.85953 -3.1686,-1.44504 -5.47834,-2.14404 -9.29403,-4.10026 -9.29403,-4.76484 0,-0.6805 1.02343,-0.53776 2.10519,0.2936 0.6201,0.47657 3.34657,0.86744 3.85575,0.55275 0.35506,-0.21944 -0.76482,-1.63032 -3.51149,-4.42406 -2.61053,-2.65528 -3.23671,-3.05105 -5.2019,-3.28793 -1.07831,-0.13006 -2.78729,-0.6164 -3.79774,-1.08096 l -1.83713,-0.84464 1.30962,-0.50022 c 0.7203,-0.27513 1.17058,-0.6393 1.00059,-0.80927 -0.16999,-0.16998 0.87282,-0.88983 2.31732,-1.59969 3.77141,-1.85335 9.18863,-2.22435 12.15039,-0.83217 1.36435,0.64131 3.13312,1.01914 5.0672,1.08236 2.96259,0.0968 2.97165,0.0935 3.1192,-1.20685 0.2097,-1.84782 -0.68636,-2.56081 -7.80348,-6.20926 -2.79086,-1.43069 -4.51593,-2.05568 -5.27394,-1.91079 -0.66548,0.12715 -1.27074,-0.034 -1.47897,-0.39406 -0.19388,-0.33516 -0.18195,-0.45452 0.0265,-0.26522 0.20849,0.1893 0.80226,-0.0415 1.31944,-0.51291 0.86543,-0.78879 1.62791,-1.02548 5.47406,-1.69942 1.05396,-0.18465 2.48269,0.34386 6.34719,2.348 2.74287,1.42247 5.39507,2.94407 5.89378,3.38131 0.49871,0.43724 1.34063,0.92622 1.87093,1.0866 1.18082,0.35712 5.81708,4.36553 7.50284,6.48675 0.68955,0.8677 1.36514,2.422 1.52971,3.51939 0.20968,1.39827 0.54327,2.03039 1.15612,2.19065 0.57223,0.14959 0.86143,0.62758 0.86143,1.42364 0,0.65912 0.32662,1.83005 0.72586,2.60207 0.69122,1.33665 0.6858,1.38578 -0.11327,1.02886 -1.5152,-0.67671 -3.35166,-0.38547 -4.07423,0.64616 -0.55842,0.79724 -0.97452,0.9309 -2.18891,0.7031 -0.89326,-0.16759 -1.62289,-0.0815 -1.8048,0.21278 -0.16791,0.27175 -0.0643,0.49407 0.23029,0.49407 0.39668,0 0.40464,0.15781 0.0307,0.60844 -0.27774,0.33463 -0.38387,0.72949 -0.23586,0.87749 0.14804,0.14804 -0.51684,0.39539 -1.47739,0.54977 -0.96055,0.15438 -2.09522,0.47011 -2.52146,0.70163 -0.42624,0.23153 -1.40442,0.29507 -2.17374,0.1412 -1.05351,-0.2107 -1.36577,-0.12493 -1.26518,0.34769 0.10184,0.47805 -0.62314,0.6586 -3.04498,0.75844 -1.74821,0.0722 -3.38034,-0.0401 -3.62695,-0.24942 z m -59.517565,1.88615 c -0.321507,-0.3489 -0.384557,-0.63432 -0.140164,-0.63432 0.470813,0 1.152346,0.8624 0.883444,1.11784 -0.0874,0.0829 -0.421824,-0.13469 -0.743349,-0.48352 z m -3.269032,20.43277 c 0,-0.13262 0.34632,-0.99976 0.769626,-1.92681 l 0.769607,-1.68559 0.170668,1.53925 c 0.105043,0.94722 -0.06014,1.68566 -0.429596,1.91988 -0.687063,0.43563 -1.280394,0.50663 -1.280394,0.15319 z m 3.645806,2.84811 c -0.01373,-2.31238 0.134338,-3.06025 0.608312,-3.06025 1.008994,0 1.090371,1.42057 0.220742,3.85364 l -0.810202,2.26686 z m 2.701347,10.06495 c 0,-0.26175 0.323391,-1.10126 0.718643,-1.86557 0.496568,-0.96025 0.864029,-1.24429 1.189149,-0.91916 0.325141,0.32515 0.163646,0.90161 -0.522814,1.86558 -1.050004,1.4746 -1.384978,1.6969 -1.384978,0.91915 z m 30.531474,-63.1091 c -0.11514,-0.18703 0.006,-0.34004 0.27085,-0.34004 0.26408,0 0.48013,0.20403 0.48013,0.45339 0,0.75176 0.65229,0.51155 1.26201,-0.46477 0.53532,-0.85718 0.48992,-0.89741 -0.68433,-0.60627 -0.69175,0.17151 -1.86978,0.57438 -2.61783,0.89526 l -1.36011,0.58344 1.42929,-0.0905 c 0.78609,-0.0498 1.33509,-0.24351 1.21999,-0.43051 z m 64.53394,71.40558 c 0.15559,-0.43637 0.48015,-1.04842 0.72132,-1.36011 0.24117,-0.31169 0.29995,-0.5667 0.13057,-0.5667 -0.1693,0 -0.005,-0.43277 0.36571,-0.96174 0.48759,-0.69612 0.55731,-1.26772 0.25241,-2.06967 -0.23168,-0.60937 -0.42124,-1.62653 -0.42124,-2.26036 0,-0.88207 -0.1745,-1.08544 -0.74395,-0.86693 -0.40914,0.15696 -1.27622,-0.0475 -1.9268,-0.45417 -1.24554,-0.77883 -4.74498,-4.32588 -5.21825,-5.28928 -0.68593,-1.39627 -2.39736,-4.01094 -3.2952,-5.03426 -0.54084,-0.61647 -1.19838,-1.52257 -1.46114,-2.01357 -0.26784,-0.50045 -1.17346,-1.02325 -2.06097,-1.18974 -1.63343,-0.30644 -2.63675,-1.20583 -1.69524,-1.51967 0.29351,-0.0979 0.53363,-0.47894 0.53363,-0.84691 0,-0.36798 -0.204,-0.54294 -0.45335,-0.38883 -0.24936,0.15405 -0.45336,0.0811 -0.45336,-0.16209 0,-0.24328 0.255,-0.54525 0.56669,-0.67102 0.45337,-0.18294 0.45337,-0.23583 0,-0.26445 -0.95129,-0.0601 -0.67347,-1.84928 0.28716,-1.84928 1.01342,0 1.39546,-1.16382 1.41387,-4.30701 0.006,-1.24676 0.29993,-3.48558 0.65031,-4.97515 0.35036,-1.48958 0.50779,-2.91745 0.34981,-3.17306 -0.91837,-1.48595 -0.006,-3.86605 1.48171,-3.86605 0.5999,0 1.21239,-0.19687 1.36107,-0.43747 0.14874,-0.24059 1.17626,0.25403 2.28347,1.09917 2.12026,1.61844 5.42394,2.57043 9.47105,2.72919 1.62644,0.0638 2.53996,0.37646 3.40027,1.16376 0.64698,0.5921 2.0944,1.51919 3.2165,2.06024 2.42816,1.17081 5.89378,4.08415 5.89378,4.95456 0,0.3399 0.22589,0.75758 0.50194,0.9282 0.33469,0.20684 0.40407,0.002 0.20826,-0.61514 -0.16228,-0.51103 -0.0662,-1.06606 0.21468,-1.23957 0.35304,-0.21818 0.41027,-1.49237 0.18727,-4.1693 -0.25239,-3.02987 -0.18894,-3.93678 0.29634,-4.23671 0.35316,-0.21826 0.71755,-1.50489 0.85125,-3.00565 0.21679,-2.43305 0.31628,-2.62431 1.36721,-2.6278 0.92557,-0.003 1.2361,-0.33636 1.69326,-1.81723 0.93629,-3.03298 0.74054,-6.35994 -0.44649,-7.58789 -2.396,-2.47861 -5.32708,-5.97078 -5.32708,-6.34684 0,-0.382 -2.15719,-3.47837 -2.7682,-3.97334 -0.15386,-0.12475 -0.8322,-1.36096 -1.50734,-2.74727 -0.67514,-1.38631 -1.82547,-3.1604 -2.55631,-3.9424 -0.73083,-0.78198 -1.32878,-1.54944 -1.32878,-1.70545 0,-0.35226 -1.20361,-1.579 -1.54923,-1.579 -0.49624,0 -2.07773,-1.56979 -2.07773,-2.06238 0,-0.8008 -3.78013,-4.6955 -5.47655,-5.6425 -4.05199,-2.26204 -10.25461,-5.05554 -12.14537,-5.46998 -1.15478,-0.25314 -2.97446,-0.78928 -4.04367,-1.19146 -1.59764,-0.60091 -2.96517,-0.67661 -7.67468,-0.42484 -3.15184,0.16844 -5.9493,0.47861 -6.21659,0.68911 -0.26728,0.21052 -1.23507,0.51762 -2.15065,0.68246 -1.4,0.25203 -1.77704,0.13931 -2.3712,-0.70897 -0.64645,-0.92293 -0.63808,-1.07241 0.0985,-1.75871 0.44279,-0.41251 1.40781,-0.95151 2.1445,-1.19775 0.85526,-0.28589 1.34245,-0.76138 1.34775,-1.31542 0.005,-0.60396 0.31589,-0.85678 1.02008,-0.83174 0.55647,0.0197 1.01176,-0.10419 1.01176,-0.27544 0,-0.17136 -1.22823,-0.2895 -2.7294,-0.26268 -2.13193,0.0381 -2.71596,0.19763 -2.66802,0.72882 0.158,1.75032 0.11311,1.77603 -4.48654,2.56735 -1.36227,0.23436 -2.85472,1.44272 -5.19055,4.20252 -0.43638,0.51556 -0.7934,1.06096 -0.7934,1.21196 0,0.65351 -2.45848,3.11393 -2.99486,2.99725 -0.85087,-0.18506 -2.77826,1.62609 -3.10167,2.9146 -0.15335,0.61103 -0.79439,1.29666 -1.4428,1.54319 -0.74513,0.28331 -1.07596,0.68052 -0.91535,1.09905 0.42907,1.1181 -1.08448,4.80149 -2.1395,5.20674 -1.36553,0.5245 -3.46026,3.01052 -3.46026,4.10666 0,0.53621 -0.42676,1.08786 -1.0201,1.31864 -0.56104,0.21823 -1.79419,0.92722 -2.74034,1.57558 -0.94614,0.64833 -1.8642,1.18137 -2.04015,1.18453 -0.17594,0.003 -1.53199,0.62039 -3.01347,1.37161 -2.39298,1.21344 -9.107254,7.29412 -10.493773,9.50351 -0.748998,1.1935 -3.550791,3.51592 -4.636966,3.84355 l -1.049679,0.31666 0.936326,-1.83537 c 0.514983,-1.00943 0.936333,-2.44349 0.936333,-3.18676 0,-0.74329 0.181411,-1.46354 0.403141,-1.60058 0.806895,-0.49868 1.016616,-2.61387 0.334255,-3.37128 -0.366703,-0.40704 -0.803073,-1.28636 -0.969683,-1.95405 -0.260349,-1.04332 -0.100239,-1.31875 1.139036,-1.95961 1.824676,-0.94359 2.552918,-0.66027 2.949995,1.1476 0.21546,0.98094 0.462548,1.28832 0.780282,0.97057 0.818774,-0.81877 9.09e-4,-2.67091 -1.346161,-3.0486 -0.687892,-0.19288 -1.505737,-0.3085 -1.817427,-0.25697 -0.896105,0.14821 -0.664362,-0.86581 0.566717,-2.47983 0.62338,-0.8173 1.133427,-1.66806 1.133427,-1.89059 0,-0.50843 1.952891,-2.36742 2.522739,-2.40144 0.439402,-0.0263 2.841674,-3.02004 7.437398,-9.26874 1.46713,-1.99482 3.44758,-4.22898 4.40098,-4.9648 0.95342,-0.73582 2.52191,-2.22178 3.48552,-3.30213 0.96364,-1.08036 2.39175,-2.29192 3.17359,-2.69239 0.78186,-0.40046 1.52356,-0.86342 1.64823,-1.02881 0.63439,-0.84151 3.8514,-2.38329 7.27266,-3.48542 2.10917,-0.67947 4.75427,-1.77662 5.87798,-2.43814 2.58114,-1.51951 3.70071,-1.79355 8.53624,-2.08945 2.15314,-0.13176 4.18375,-0.46277 4.51247,-0.73557 0.76484,-0.63477 4.211,-1.33714 7.12326,-1.45181 1.24676,-0.049 2.77688,-0.36573 3.40027,-0.70358 0.62338,-0.3379 1.74546,-0.66467 2.49352,-0.72614 4.08507,-0.33584 6.86778,-0.76239 7.62815,-1.16934 0.57645,-0.30851 1.00618,-0.30872 1.31424,-6.8e-4 0.30805,0.30805 1.13637,0.25347 2.53319,-0.16689 1.53939,-0.46328 2.23307,-0.49381 2.68575,-0.11807 0.97929,0.81276 5.1236,2.6315 5.99625,2.6315 0.43966,0 1.56956,0.61205 2.51087,1.36011 0.94129,0.74807 2.05984,1.3601 2.48559,1.3601 0.42578,0 1.15866,0.42489 1.62859,0.94417 0.46996,0.5193 1.47066,1.22227 2.22379,1.56218 1.68927,0.76243 2.80939,1.75753 4.4526,3.95565 0.69843,0.93427 1.49047,1.69866 1.7601,1.69866 0.26964,0 2.19931,1.67226 4.28818,3.71616 2.08889,2.04387 3.97158,3.82902 4.18379,3.96698 0.21222,0.13794 0.72901,0.86286 1.14846,1.61091 0.41942,0.74806 1.26394,2.05334 1.87672,2.90059 0.61278,0.84728 1.11414,2.12693 1.11414,2.8437 0,0.87351 0.57114,1.93513 1.73223,3.21987 3.2139,3.55612 3.70819,4.76319 3.70819,9.05525 0,2.8762 -0.17304,4.00157 -0.68003,4.42234 -0.55,0.45647 -0.68007,1.88437 -0.68007,7.46645 0,7.99413 -0.13365,8.41565 -3.87581,12.21804 -2.42174,2.46072 -3.5131,4.04698 -5.32821,7.74432 -0.48965,0.99743 -1.47527,2.48363 -2.19028,3.3027 -0.88299,1.0115 -1.30002,1.98263 -1.30002,3.02723 0,1.19799 -0.34206,1.82094 -1.54723,2.81778 -0.85098,0.70388 -2.37329,2.8099 -3.38292,4.68006 -1.14298,2.11715 -3.12534,4.72553 -5.2533,6.91227 -1.87969,1.93161 -3.41761,3.82889 -3.41761,4.21618 0,0.38727 -0.30021,1.28466 -0.6671,1.99417 -0.36688,0.7095 -0.80027,2.17848 -0.96302,3.26441 -0.20935,1.39649 -0.77088,2.47203 -1.91847,3.67454 -1.75526,1.83923 -2.48181,2.16314 -2.03391,0.90672 z M 33.2858,225.77281 c 0.31169,-0.12578 0.821737,-0.12578 1.133426,0 0.311689,0.12577 0.05672,0.22868 -0.566714,0.22868 -0.623377,0 -0.878401,-0.10301 -0.566712,-0.22868 z m 85.3467,-35.99285 c 0,-0.92506 0.53956,-1.05177 2.01698,-0.4737 0.77866,0.30468 0.71139,0.40575 -0.5667,0.8513 -1.30815,0.45602 -1.45028,0.41901 -1.45028,-0.3776 z m 17.57617,11.35782 c -0.31144,-0.4987 -0.82322,-0.90675 -1.13725,-0.90675 -0.31407,0 -0.52,-0.22853 -0.45768,-0.50786 0.10899,-0.48853 -1.35525,-1.57383 -3.74029,-2.77223 -0.62336,-0.31323 -1.4842,-1.00268 -1.91295,-1.53215 -0.42876,-0.52945 -1.34683,-1.08899 -2.04016,-1.24335 -0.69334,-0.15439 -1.74965,-0.69718 -2.3474,-1.20622 -0.93056,-0.79247 -1.01501,-1.08297 -0.58757,-2.02112 0.33207,-0.72884 1.01895,-1.19314 2.05172,-1.38687 1.93891,-0.36376 3.04353,-2.06815 2.20774,-3.40646 -0.29972,-0.47994 -0.54494,-1.55782 -0.54494,-2.39528 0,-1.8294 -1.16648,-3.03295 -2.99731,-3.0926 -2.58384,-0.0842 -5.1869,0.47769 -6.48045,1.39877 -0.72401,0.51555 -1.5471,0.93737 -1.82907,0.93737 -1.11059,0 -2.74763,1.50075 -2.74763,2.5189 0,0.58 -0.2123,1.18575 -0.47179,1.34613 -0.25951,0.16038 -0.36374,0.63214 -0.23164,1.04835 0.45723,1.44059 -1.3195,3.51637 -3.66897,4.28649 -3.83294,1.25639 -6.23656,2.48734 -7.75116,3.9696 -1.615662,1.58112 -1.567518,2.24506 0.16278,2.24506 0.6234,0 1.02688,-0.17243 0.89663,-0.38315 -0.41074,-0.66459 6.11923,-2.01768 10.79767,-2.23739 6.1936,-0.29085 8.82023,0.30384 16.02542,3.62843 3.2791,1.51301 5.98189,2.54131 6.79998,2.58712 0.45711,0.0256 0.45797,-0.14839 0.003,-0.87479 z m 3.39064,18.35421 c 0.76144,-1.02514 0.7571,-1.0771 -0.11344,-1.35337 -0.72342,-0.22961 -0.90522,-0.68658 -0.90522,-2.27556 0,-1.8891 -0.0622,-1.9837 -1.24677,-1.89628 -1.1563,0.0853 -1.25675,-0.0452 -1.38444,-1.7995 -0.16382,-2.2494 -0.6489,-2.73246 -2.97,-2.95711 -1.56805,-0.15182 -1.80944,-0.34914 -2.35014,-1.92194 -0.33141,-0.96403 -0.87112,-1.92309 -1.19933,-2.13123 -0.88012,-0.55808 -2.82878,-0.47244 -3.45298,0.15184 -0.42314,0.42313 -0.54405,0.22895 -0.54405,-0.87383 0,-1.8789 -1.92666,-3.47853 -3.75038,-3.1138 -0.85384,0.17085 -1.35062,0.0472 -1.51318,-0.37642 -0.35263,-0.91895 -2.66858,-1.75405 -3.83644,-1.38337 -0.55343,0.17564 -1.48008,0.85721 -2.05926,1.51461 -1.03128,1.17053 -1.05334,1.17449 -1.06736,0.19111 -0.009,-0.55228 -0.42236,-1.22251 -0.92108,-1.4894 -0.52121,-0.27895 -0.90672,-0.30458 -0.90672,-0.0603 0,0.23373 -0.61205,0.63832 -1.36012,0.8991 -1.57956,0.55065 -1.63853,0.83132 -0.46929,2.23337 0.64543,0.77395 1.18462,0.97493 2.15627,0.80375 1.11302,-0.19608 1.36743,-0.0381 1.80512,1.12149 0.50049,1.32602 1.62347,1.78882 2.17502,0.89639 0.54107,-0.87547 2.32841,-0.47561 2.93425,0.6564 0.32667,0.6104 1.38121,1.4248 2.34345,1.80981 1.25535,0.50231 1.74952,0.96982 1.74952,1.65523 0,0.52535 0.65108,1.56339 1.44686,2.30677 1.4192,1.32574 2.14583,1.43265 4.11536,0.60555 0.70075,-0.29428 0.74671,-0.19174 0.36459,0.81337 -0.38678,1.01728 -0.25033,1.29268 1.18177,2.38499 0.90382,0.68936 2.2502,1.25565 3.04773,1.28184 1.73244,0.0569 3.89812,1.65853 3.89812,2.88288 0,1.21743 1.76667,0.85792 2.83205,-0.57632 z m -1.59473,2.22683 c -0.15062,-0.1506 -0.54169,-0.1667 -0.86895,-0.0359 -0.36169,0.14479 -0.25426,0.25215 0.27389,0.2739 0.47793,0.0198 0.74569,-0.0875 0.59506,-0.2381 z m -68.026231,4.7226 c -0.144795,-0.36166 -0.252165,-0.25424 -0.27391,0.27392 -0.01975,0.47791 0.0874,0.74569 0.238113,0.59504 0.150621,-0.15063 0.166728,-0.54168 0.03585,-0.86896 z m 20.549409,12.55765 c -0.308146,-0.37128 -0.744476,-0.56122 -0.969643,-0.42204 -0.578706,0.35767 -0.02539,1.09709 0.821084,1.09709 0.576327,0 0.604095,-0.1261 0.148559,-0.67505 z m -8.879224,3.95702 c 0.324656,-1.02294 2.075053,-10.08526 2.502376,-12.95555 0.179555,-1.20612 0.580268,-2.3498 0.890447,-2.54151 0.310179,-0.1917 0.678017,-1.19899 0.81745,-2.23841 0.139482,-1.03944 0.429952,-1.99896 0.645668,-2.13227 0.215696,-0.13331 0.39219,-0.83035 0.39219,-1.54898 0,-0.71862 0.204015,-1.43269 0.453364,-1.58677 0.24935,-0.15406 0.453365,-0.64486 0.453365,-1.09054 0,-0.44568 0.332921,-1.47766 0.739804,-2.29329 1.964167,-3.93727 1.433354,-6.1339 -0.948766,-3.92622 -0.672536,0.62328 -1.801668,1.26039 -2.509192,1.41579 -1.272928,0.27959 -2.047867,1.29791 -1.572718,2.06669 0.135196,0.21869 -0.187169,0.65932 -0.716293,0.97917 -0.529115,0.31985 -1.332029,1.29559 -1.784268,2.16833 -0.452209,0.87273 -1.455327,2.24798 -2.22913,3.05612 -0.773814,0.80812 -1.406901,1.78922 -1.406901,2.18027 0,0.391 -0.174203,0.60327 -0.387085,0.47168 -0.422041,-0.26084 -1.426403,1.64069 -1.426403,2.70059 0,0.3623 -0.182182,0.65872 -0.40486,0.65872 -0.502807,0 -1.071718,1.39476 -0.714583,1.75188 0.144103,0.14412 0.451814,-0.0381 0.683773,-0.4049 0.369271,-0.58387 0.426615,-0.58225 0.460594,0.0138 0.02626,0.45812 0.166046,0.38414 0.42845,-0.22667 0.356927,-0.83066 0.392309,-0.81138 0.421499,0.22965 0.01747,0.62505 -0.181738,1.84913 -0.442829,2.72021 -0.26109,0.87111 -0.490158,3.1722 -0.509039,5.11356 -0.04147,4.26489 0.612607,5.31095 3.320836,5.31095 0.958769,0 1.743218,0.20401 1.743218,0.45337 0,0.76361 0.829845,0.5031 1.099033,-0.345 z m -43.7157,1.95854 c 0,-0.11002 -0.204013,-0.32603 -0.453381,-0.48011 -0.249352,-0.15406 -0.453364,-0.0642 -0.453364,0.1999 0,0.26408 0.204012,0.48013 0.453364,0.48013 0.249368,0 0.453381,-0.09 0.453381,-0.19992 z m 76.619356,1.81347 c 0,-0.11 -0.20402,-0.32601 -0.45337,-0.48012 -0.24935,-0.15404 -0.45339,-0.0642 -0.45339,0.19992 0,0.26406 0.20404,0.48013 0.45339,0.48013 0.24935,0 0.45337,-0.0899 0.45337,-0.19993 z m -17.001341,-0.25344 c -0.154048,-0.24935 -0.484229,-0.45336 -0.733578,-0.45336 -0.24935,0 -0.327282,0.20401 -0.173165,0.45336 0.154037,0.24936 0.484203,0.45337 0.733557,0.45337 0.24935,0 0.327283,-0.20401 0.173186,-0.45337 z m 1.586794,0.90675 c 0,-0.24936 -0.191987,-0.45338 -0.426618,-0.45338 -0.234632,0 -0.552695,0.20402 -0.706812,0.45338 -0.154048,0.24934 0.03782,0.45336 0.426614,0.45336 0.388743,0 0.706816,-0.20402 0.706816,-0.45336 z m 10.050697,2.4171 c 0.83062,-0.41606 1.81623,-0.89513 2.19025,-1.06458 0.37403,-0.16946 0.91687,-0.77519 1.20633,-1.34604 0.43866,-0.86516 0.37866,-1.19639 -0.36031,-1.9896 -0.75664,-0.81216 -0.9484,-0.85285 -1.3082,-0.27766 -0.30645,0.48991 -0.17707,0.78578 0.47368,1.08327 1.1566,0.52881 1.15027,1.17751 -0.0119,1.17751 -0.49869,0 -0.90674,-0.16998 -0.90674,-0.37782 0,-0.84737 -1.5096,-0.28918 -2.86378,1.05892 -1.21229,1.20682 -1.73341,1.41571 -3.25669,1.30541 l -1.81348,-0.13125 1.70514,0.36193 c 0.93783,0.19907 1.83889,0.4957 2.00238,0.65918 0.48025,0.48024 1.33305,0.34718 2.94292,-0.45923 z m -86.007424,8.77261 c 0.364036,-0.36405 1.136081,-0.55266 1.767787,-0.43189 0.907052,0.17338 1.15241,0.0107 1.283117,-0.85137 0.08893,-0.58617 0.411812,-1.01477 0.717571,-0.95242 0.305778,0.0624 0.555952,-0.28545 0.555952,-0.77284 0,-0.65387 0.416043,-0.96426 1.586788,-1.18391 0.872748,-0.16379 1.586789,-0.53035 1.586789,-0.8147 0,-0.28438 0.939351,-1.01537 2.087427,-1.62441 2.8441,-1.50879 3.463058,-2.53477 2.855872,-4.73387 l -0.476649,-1.72622 -3.706772,0.31108 c -2.3034,0.19332 -3.894901,0.55001 -4.203694,0.94216 -0.555592,0.7056 -3.607817,0.98893 -4.831168,0.44847 -1.11281,-0.49164 -3.059233,0.0811 -3.059233,0.90012 0,0.37543 -0.525399,0.88237 -1.167559,1.12654 -1.381233,0.52514 -1.959391,1.10063 -3.026094,3.01217 -1.167386,2.09193 -1.013015,3.96248 0.453365,5.49375 1.083373,1.13129 1.61919,1.31514 4.088493,1.40279 1.967328,0.0699 3.040572,-0.0981 3.488008,-0.54545 z M 0.03823195,242.97534 0.07644778,203.63131 3.2500418,203.60821 c 3.7513406,-0.0275 8.1963662,-0.57405 9.3670432,-1.15202 0.458572,-0.22639 1.220198,-0.60389 1.69253,-0.83889 0.472315,-0.23498 2.6655,-0.41917 4.873713,-0.40933 26.546455,0.11857 27.513394,0.0664 31.217065,-1.68937 2.304823,-1.09254 6.099139,-5.05961 6.114406,-6.39275 0.0067,-0.61612 3.56114,-3.76632 4.28135,-3.79481 0.266812,-0.0107 0.985566,-0.62261 1.597258,-1.36011 0.611692,-0.7375 1.367167,-1.34091 1.678855,-1.34091 0.31169,0 0.911028,-0.72558 1.331834,-1.61239 0.420828,-0.8868 1.450657,-2.13525 2.288509,-2.77432 l 1.523374,-1.16193 -0.03802,-4.74413 c -0.02094,-2.60928 0.08088,-4.86311 0.226302,-5.00852 0.145477,-0.14548 0.264381,0.09 0.264381,0.5229 0,1.19844 2.630721,4.76288 4.238989,5.74355 0.785466,0.47894 2.193187,0.87157 3.128256,0.87249 0.93507,9.2e-4 1.700135,0.20572 1.700135,0.45509 0,0.24935 -0.204025,0.45335 -0.453375,0.45335 -0.24935,0 -0.453365,0.30094 -0.453365,0.66873 0,0.48987 -0.337936,0.60113 -1.263704,0.41597 -1.505669,-0.30114 -2.022963,0.11121 -6.034002,4.8091 -1.596695,1.87016 -3.056102,3.46827 -3.243121,3.55139 -0.187011,0.0831 -0.34003,0.52736 -0.34003,0.98717 0,0.45983 -0.459033,1.20791 -1.020073,1.66236 -1.18893,0.96306 -3.51361,3.98376 -3.51361,4.56557 0,0.72239 -3.679957,2.38121 -5.28251,2.38121 -2.210972,0 -5.737927,0.94668 -6.288893,1.68803 -0.25511,0.34326 -2.193271,1.22825 -4.307002,1.96662 -6.84015,2.38944 -11.399003,6.45725 -14.418825,12.86576 -1.687835,3.58184 -5.281035,7.26464 -7.834265,8.02961 -1.91623,0.57411 -3.299932,1.8524 -3.805953,3.51601 l -0.33172,1.09058 2.997323,-0.27989 c 1.648527,-0.15387 3.355467,-0.46562 3.793221,-0.69261 0.437735,-0.227 1.815971,-0.5566 3.062746,-0.73246 2.173479,-0.30656 2.23419,-0.28632 1.473986,0.49202 -0.938169,0.96057 -4.047249,1.96211 -6.121019,1.97178 -0.810393,0.003 -1.473457,0.21094 -1.473457,0.46028 0,0.24934 -0.516437,0.45337 -1.147646,0.45337 -0.63121,0 -1.265076,0.30603 -1.408617,0.68005 -0.143592,0.37403 -0.623276,0.68005 -1.0661,0.68005 -1.087862,0 -5.746358,5.5297 -6.129999,7.27636 -0.206856,0.94185 -0.09373,1.64771 0.346679,2.16151 0.359617,0.41962 0.783525,1.12792 0.942008,1.574 0.240869,0.67797 0.642759,0.76926 2.4491,0.55629 3.631857,-0.42821 5.163556,-1.20021 4.763363,-2.40081 -0.107952,-0.32378 0.417294,-0.78394 1.210327,-1.06038 0.770554,-0.26863 1.400992,-0.67245 1.400992,-0.89743 0,-0.22494 1.377122,-0.42511 3.060245,-0.44479 1.683139,-0.0198 2.805222,-0.13879 2.493531,-0.26446 -1.026261,-0.4141 -0.590512,-1.12774 0.597762,-0.97896 0.876312,0.10965 1.481612,-0.24235 2.445999,-1.42261 1.140021,-1.39522 1.366721,-1.4977 2.052986,-0.92816 0.671647,0.55741 0.827355,0.54036 1.203474,-0.13178 0.237613,-0.42457 0.727919,-0.77196 1.089559,-0.77196 0.361638,0 0.657511,-0.19478 0.657511,-0.43284 0,-0.23804 0.730355,-0.56984 1.622995,-0.73729 0.892642,-0.16741 1.730534,-0.58474 1.861978,-0.92727 0.131429,-0.34257 0.456123,-0.62282 0.721497,-0.62282 0.26539,0 0.840789,-0.32423 1.278679,-0.72052 0.468768,-0.42423 1.650344,-0.73343 2.873385,-0.75193 1.148298,-0.0173 2.302937,-0.30337 2.581967,-0.63959 0.277607,-0.33448 0.887809,-0.60818 1.355978,-0.60818 0.468167,0 0.876722,-0.204 0.90789,-0.45336 0.03118,-0.24935 0.08224,-0.62437 0.113264,-0.83338 0.03118,-0.20902 0.872746,-1.17808 1.870153,-2.15351 0.997406,-0.97541 1.830467,-2.13052 1.851254,-2.56688 0.122687,-2.57696 0.247466,-3.06025 0.789931,-3.06025 0.729532,0 2.572559,-1.88851 2.572559,-2.63608 0,-0.29562 0.204012,-0.53749 0.453364,-0.53749 0.249351,0 0.453364,-0.5048 0.453364,-1.12177 0,-0.78077 0.401992,-1.32966 1.322357,-1.80561 0.834741,-0.43165 1.430447,-1.17595 1.61549,-2.01846 0.161242,-0.73406 0.807445,-1.67164 1.436032,-2.08351 1.068381,-0.70002 1.090587,-0.78708 0.340649,-1.33544 -0.748227,-0.5471 -0.700162,-0.7155 0.713766,-2.50073 2.012709,-2.54127 3.639098,-4.95714 3.639098,-5.40563 0,-0.19962 0.376716,-0.7039 0.83715,-1.12059 0.460445,-0.41668 1.073437,-1.54619 1.362197,-2.51002 0.288761,-0.96381 0.830121,-2.00558 1.202994,-2.31504 0.372886,-0.30946 0.677969,-0.94573 0.677969,-1.4139 0,-0.46817 0.204015,-0.85122 0.453365,-0.85122 0.249349,0 0.453384,0.39844 0.453384,0.88541 0,0.48696 0.226608,1.38277 0.503589,1.99066 0.315165,0.69172 0.3495,1.38061 0.09183,1.84115 -0.477785,0.85374 -0.214413,3.99507 0.307867,3.67226 0.193331,-0.11943 0.246763,1.088 0.118745,2.68328 -0.20907,2.60461 -0.134337,2.96204 0.732735,3.50354 1.141612,0.71294 1.220878,1.74963 0.27385,3.58096 -0.380429,0.73569 -0.499431,1.33759 -0.264459,1.33759 0.234971,0 0.540481,-0.25501 0.678896,-0.5667 0.138456,-0.31169 0.173235,0.0961 0.07741,0.90631 -0.09578,0.81015 -1.008144,3.01898 -2.027348,4.90851 -1.019203,1.88953 -1.853105,3.65882 -1.853105,3.93173 0,0.27291 -0.338777,0.87054 -0.752841,1.32807 -0.414052,0.45754 -0.629817,0.95489 -0.479472,1.10523 0.333365,0.33337 3.045781,-1.5396 3.045781,-2.10312 0,-0.22131 0.513779,-1.17649 1.141751,-2.12264 0.627942,-0.94614 1.336552,-2.0263 1.574644,-2.40032 2.682841,-4.21434 4.339654,-6.77682 5.01706,-7.75947 0.449513,-0.6521 1.110911,-1.87618 1.469774,-2.72022 0.614225,-1.44463 1.512511,-2.52514 6.452763,-7.76185 1.113973,-1.18082 2.025412,-2.44665 2.025412,-2.81293 0,-0.36629 1.071086,-1.7854 2.380187,-3.15358 1.309089,-1.36819 2.71401,-2.85659 3.122039,-3.30756 0.407998,-0.45098 1.914803,-1.84002 3.348435,-3.08679 1.43364,-1.24676 2.93028,-2.62388 3.3259,-3.06023 0.3956,-0.43638 0.92897,-0.79797 1.18524,-0.80356 0.25628,-0.005 1.69006,-0.61306 3.18617,-1.34995 1.49611,-0.73688 2.99474,-1.34435 3.33028,-1.34996 0.33555,-0.005 1.1516,-0.39281 1.81347,-0.86051 1.07466,-0.75938 2.40439,-1.19178 5.28376,-1.7182 4.60664,-0.84219 6.35298,-1.1182 9.29403,-1.46896 1.87016,-0.22305 3.48742,-0.32179 3.59391,-0.21944 0.10656,0.10227 -0.33782,0.74502 -0.9874,1.42813 -1.67832,1.76504 -3.19887,5.80231 -2.60394,6.91393 0.47301,0.88381 2.51242,1.42454 4.53114,1.20138 0.62338,-0.0689 1.39336,0.0688 1.71109,0.30561 0.31772,0.237 0.69132,0.31724 0.83026,0.17832 0.13896,-0.13898 1.1031,0.13348 2.14256,0.60547 1.03947,0.47197 2.56503,0.8626 3.39015,0.86807 0.88261,0.005 1.38485,0.19659 1.21997,0.46333 -0.15404,0.24935 0.0314,0.45336 0.4124,0.45336 0.41084,0 0.59246,0.26094 0.44645,0.64143 -0.19661,0.51232 0.13228,0.59068 1.63363,0.38931 1.40131,-0.18796 2.3869,9.1e-4 3.872,0.74284 1.56986,0.78401 2.18685,0.89078 2.91018,0.50366 0.68706,-0.36771 1.2326,-0.33305 2.16882,0.13776 2.11704,1.06467 4.24291,1.28665 5.35346,0.55899 1.15601,-0.75746 1.56452,-0.52255 1.56452,0.89968 0,0.55129 0.2724,1.22843 0.60537,1.50474 1.051,0.87228 1.58339,3.69803 2.10432,11.16955 0.61001,8.74876 0.60453,8.70929 1.30343,9.4082 0.44219,0.44218 0.64871,0.41767 0.99283,-0.11791 0.36276,-0.5646 0.47807,-0.51773 0.6984,0.28394 0.23042,0.83839 0.51434,0.93195 2.2385,0.73763 2.23223,-0.2516 5.62999,0.25275 4.8694,0.72282 -0.27469,0.16981 -0.64383,0.88412 -0.82036,1.5875 -0.17652,0.70334 -0.57307,1.37554 -0.88115,1.49379 -0.3081,0.11823 -1.12629,1.33385 -1.81821,2.70138 -0.6919,1.36755 -1.68868,2.71484 -2.21503,2.99397 -1.03141,0.54697 -1.91893,1.61357 -3.00024,3.60565 -0.37573,0.69218 -2.82393,3.47135 -5.44043,6.17595 -2.61652,2.70458 -5.47135,5.72541 -6.34411,6.71292 -1.3921,1.5752 -2.03178,1.89729 -5.21374,2.62522 -1.99481,0.45638 -4.03498,1.02378 -4.53367,1.26094 -1.93764,0.9214 -3.74518,2.02252 -5.28274,3.21808 -0.88186,0.68574 -1.91534,1.24678 -2.29663,1.24678 -0.74958,0 -4.42328,2.50253 -7.15458,4.87372 -0.93347,0.8104 -1.93566,1.47344 -2.22706,1.47344 -1.22417,0 -4.18915,1.93463 -4.59302,2.99688 -0.8223,2.16276 0.51581,4.61866 2.96592,5.44355 0.49869,0.16793 2.01853,1.29574 3.37741,2.50627 1.35887,1.21056 2.61815,2.20099 2.7984,2.20099 0.85847,0 2.2115,7.55355 2.2115,12.3462 v 2.87844 L 66.570164,282.21009 0,282.31925 0.0383834,242.97523 Z"
       style="fill:#808080;stroke-width:0.45336884"
       id="path826" />
  </g>
</svg>
